<?xml version="1.0" standalone="no"?>
<!DOCTYPE svg PUBLIC "-//W3C//DTD SVG 20010904//EN"
 "http://www.w3.org/TR/2001/REC-SVG-20010904/DTD/svg10.dtd">
<svg version="1.0" xmlns="http://www.w3.org/2000/svg"
 width="1228.000000pt" height="1923.000000pt" viewBox="0 0 1228.000000 1923.000000"
 preserveAspectRatio="xMidYMid meet">

<g transform="translate(0.000000,1923.000000) scale(0.100000,-0.100000)"
fill="#000000" stroke="none">
<path d="M6898 16770 c-15 -4 -46 -27 -70 -49 -49 -47 -72 -56 -125 -46 -207
38 -397 -30 -618 -224 -63 -55 -121 -131 -151 -197 -50 -113 -68 -449 -27
-496 12 -14 14 -29 8 -70 -13 -93 -10 -131 12 -178 12 -25 25 -70 29 -102 6
-49 4 -58 -15 -74 -24 -21 -27 -34 -7 -34 8 0 17 -12 20 -26 4 -15 9 -24 13
-21 3 3 14 88 24 188 23 222 40 294 90 382 21 38 39 71 39 73 0 2 9 23 19 47
11 23 22 62 26 87 9 63 40 129 83 173 42 44 135 111 170 122 13 4 43 20 67 36
61 42 120 60 197 64 37 2 78 7 90 11 20 6 21 5 9 -10 -12 -14 -9 -16 31 -16
25 0 70 -5 100 -11 l56 -11 -13 -38 c-25 -71 -46 -320 -27 -320 4 0 15 -21 26
-46 12 -28 49 -76 102 -130 54 -55 81 -89 78 -99 -4 -10 0 -15 12 -15 10 0 31
-4 48 -10 17 -5 70 -21 118 -36 49 -14 90 -30 93 -35 3 -5 23 -7 44 -4 29 4
47 -1 72 -18 48 -32 69 -81 75 -179 6 -86 0 -129 -51 -366 -15 -67 -24 -130
-21 -139 10 -26 16 -10 31 83 10 61 27 115 54 171 22 46 43 100 46 121 12 67
27 107 50 127 24 21 39 69 50 152 4 29 11 55 16 59 10 6 3 194 -12 309 -10 79
-34 153 -54 167 -6 5 -5 8 3 8 8 0 4 13 -11 38 -50 79 -97 160 -97 167 0 32
-194 210 -241 220 -16 4 -29 10 -29 14 0 4 -13 14 -28 23 -39 23 -113 48 -105
35 4 -7 0 -8 -13 -3 -10 4 -34 10 -53 13 -22 4 -45 19 -65 41 -35 40 -68 55
-116 53 l-35 -1 25 15 c22 13 23 14 5 14 -11 0 -32 -4 -47 -9z m182 -128 c-1
-15 -7 -38 -15 -52 l-15 -25 7 30 c4 17 8 42 8 57 0 14 3 24 8 21 4 -2 7 -16
7 -31z m451 -219 c13 -16 12 -17 -3 -4 -17 13 -22 21 -14 21 2 0 10 -8 17 -17z
m-437 -256 c-4 -26 -10 -44 -14 -42 -8 5 -8 10 5 69 9 44 16 25 9 -27z m-125
-159 c6 -18 7 -28 2 -23 -10 12 -25 55 -18 55 3 0 10 -15 16 -32z m121 12 c0
-5 -2 -10 -4 -10 -3 0 -8 5 -11 10 -3 6 -1 10 4 10 6 0 11 -4 11 -10z m7 -52
c-3 -8 -6 -5 -6 6 -1 11 2 17 5 13 3 -3 4 -12 1 -19z"/>
<path d="M6448 15925 c-2 -2 -29 -5 -59 -6 -57 -2 -117 -25 -103 -39 5 -5 34
-3 65 5 51 11 59 11 73 -4 13 -12 43 -17 121 -21 114 -5 123 -1 80 40 -21 20
-38 24 -99 27 -40 1 -75 0 -78 -2z"/>
<path d="M6337 15684 c-62 -32 -61 -56 3 -66 25 -4 69 -4 99 -1 49 5 54 8 67
39 l14 34 38 -15 c20 -9 45 -25 54 -36 10 -11 23 -19 30 -17 23 8 -38 56 -93
72 -79 24 -154 20 -212 -10z"/>
<path d="M7090 15579 c-24 -10 -40 -26 -40 -42 0 -12 65 -37 94 -37 19 0 27 7
32 25 8 31 34 33 80 4 34 -20 46 -48 22 -50 -20 -1 45 -28 69 -29 76 -1 -9 80
-120 115 -85 27 -100 29 -137 14z"/>
<path d="M5810 15516 c0 -11 30 -39 36 -34 2 3 -5 13 -16 23 -11 10 -20 15
-20 11z"/>
<path d="M6667 15225 c-7 -17 37 -55 64 -55 25 0 24 12 -6 44 -27 29 -50 34
-58 11z"/>
<path d="M6854 15173 c-28 -27 -29 -28 -7 -31 30 -4 77 19 81 41 5 27 -41 21
-74 -10z"/>
<path d="M6507 14950 c-16 -5 -35 -14 -44 -21 -26 -22 20 -31 80 -15 43 11 66
11 137 0 119 -19 218 -48 244 -73 25 -24 84 -47 94 -36 4 3 -14 26 -39 50 -38
35 -54 44 -100 50 -30 4 -58 10 -64 13 -5 3 -23 5 -40 4 -16 -2 -66 6 -110 17
-86 22 -114 24 -158 11z"/>
<path d="M6528 14228 c-17 -17 -17 -18 6 -24 13 -3 26 -13 29 -23 5 -22 70
-41 140 -41 46 0 57 4 69 23 8 12 13 28 11 35 -13 36 -168 66 -214 42 -9 -6
-19 -6 -21 -2 -2 4 -11 0 -20 -10z"/>
<path d="M6690 13850 c0 -5 5 -10 10 -10 6 0 10 5 10 10 0 6 -4 10 -10 10 -5
0 -10 -4 -10 -10z"/>
<path d="M6434 13466 c-28 -17 -75 -52 -104 -77 l-52 -47 19 -32 c10 -18 24
-44 32 -59 8 -14 27 -42 42 -62 33 -42 79 -136 79 -161 0 -10 7 -18 16 -18 12
0 14 -5 9 -17 -4 -10 -11 -43 -15 -73 -8 -62 -26 -102 -77 -172 -76 -105 -140
-279 -169 -458 -21 -133 -69 -589 -62 -595 3 -3 144 163 332 394 66 80 159
190 208 245 l88 98 0 92 c-1 133 -21 230 -68 322 l-40 79 8 110 c8 110 41 240
75 291 12 19 21 22 45 17 44 -8 39 18 -11 58 -33 26 -40 28 -37 13 2 -11 -4
-20 -15 -22 -16 -3 -18 1 -13 25 5 21 2 34 -9 43 -12 10 -15 10 -15 0 0 -10
-19 -11 -82 -6 -99 7 -126 14 -130 30 -2 9 -20 2 -54 -18z m154 -263 c30 -39
56 -83 48 -83 -2 0 -30 32 -61 71 -32 39 -48 66 -37 60 11 -6 33 -28 50 -48z
m64 -430 c-32 -44 -155 -170 -143 -147 10 21 149 174 158 174 2 0 -5 -12 -15
-27z m-341 -430 c-41 -52 -78 -92 -66 -73 16 25 87 110 92 110 2 0 -9 -17 -26
-37z"/>
<path d="M6255 13312 c-5 -4 -17 -16 -25 -27 -14 -20 -14 -20 7 -2 12 11 26
16 32 12 7 -3 8 0 5 9 -7 18 -6 18 -19 8z"/>
<path d="M6659 12228 c-63 -73 -155 -182 -204 -243 -49 -60 -130 -157 -180
-215 -140 -161 -131 -142 -144 -320 -6 -85 -13 -202 -16 -260 l-6 -104 43 49
c24 28 85 97 137 155 52 58 104 115 115 127 10 13 17 25 14 28 -3 3 -33 -27
-68 -67 -34 -40 -70 -77 -79 -82 -15 -9 60 78 180 208 30 34 96 108 145 166
49 58 99 116 111 130 12 14 29 34 37 45 8 11 17 18 19 15 5 -5 -219 -268 -300
-353 -26 -26 -43 -50 -39 -55 4 -4 18 5 29 19 12 15 91 106 175 203 l152 176
0 255 c0 140 -1 255 -3 255 -2 0 -55 -60 -118 -132z m-409 -961 c0 -2 -12 -14
-27 -28 l-28 -24 24 28 c23 25 31 32 31 24z"/>
<path d="M6632 11608 c-77 -90 -153 -177 -169 -193 -15 -17 -59 -66 -98 -109
-38 -44 -108 -120 -154 -170 -45 -50 -89 -102 -96 -116 -13 -27 -18 -70 -40
-390 -14 -210 -27 -364 -45 -525 -5 -44 -7 -82 -5 -84 4 -3 222 200 364 339
31 30 132 135 224 232 l167 177 0 501 c0 275 -2 500 -4 500 -1 0 -66 -73 -144
-162z m-39 -550 c-92 -100 -195 -211 -227 -247 -81 -90 -256 -271 -263 -271
-5 0 145 164 278 305 31 33 87 94 125 136 202 224 249 274 252 267 2 -4 -72
-89 -165 -190z"/>
<path d="M6666 10584 c-125 -135 -294 -305 -508 -509 l-146 -140 -6 -135 c-3
-74 -10 -189 -15 -255 -6 -65 -9 -121 -7 -122 1 -1 69 64 152 145 82 81 258
253 391 380 l241 233 7 72 c3 40 5 157 3 261 l-3 189 -109 -119z m94 -393 c0
-4 -62 -66 -137 -136 -76 -71 -221 -210 -323 -309 -193 -190 -309 -298 -275
-257 38 45 723 710 733 711 1 0 2 -4 2 -9z"/>
<path d="M6585 9937 c-99 -94 -276 -266 -394 -382 l-213 -211 -13 -178 c-8
-118 -17 -181 -25 -186 -13 -8 -192 -39 -247 -43 -32 -2 -33 -4 -33 -44 0 -29
7 -50 24 -70 45 -53 79 -138 102 -253 13 -63 24 -129 24 -147 0 -17 5 -35 11
-39 6 -3 9 -20 6 -38 -4 -24 10 -63 58 -166 174 -373 255 -566 255 -605 0 -19
46 -75 62 -75 4 0 45 32 90 71 46 39 106 91 135 115 47 40 52 48 46 74 -4 23
3 45 34 97 22 38 91 163 153 278 62 116 120 224 129 240 73 125 75 131 76 185
1 44 9 71 44 138 24 45 58 101 77 125 37 46 47 98 17 91 -10 -2 -65 6 -123 19
l-105 22 -5 66 -5 67 -233 -229 c-129 -126 -240 -229 -248 -229 -8 0 -17 6
-20 13 -2 7 105 122 248 265 l253 252 3 475 c1 261 1 475 -1 475 -1 0 -83 -78
-182 -173z m165 -309 c-1 -12 -720 -730 -720 -720 0 7 158 172 352 367 298
302 369 370 368 353z"/>
<path d="M8138 9123 c6 -2 18 -2 25 0 6 3 1 5 -13 5 -14 0 -19 -2 -12 -5z"/>
<path d="M4620 8884 l-35 -13 42 0 c34 -1 41 2 37 14 -4 8 -7 14 -8 14 0 -1
-17 -7 -36 -15z"/>
<path d="M8081 8861 c-12 -22 -37 -87 -55 -143 -19 -57 -44 -130 -56 -162 -13
-40 -17 -63 -10 -70 17 -17 11 -52 -16 -91 -14 -21 -32 -66 -41 -100 -14 -59
-17 -63 -76 -99 l-61 -38 -70 11 c-72 12 -96 23 -77 35 6 4 11 15 11 24 0 9
-16 -8 -35 -38 -19 -30 -35 -58 -35 -62 0 -10 -148 -268 -165 -288 -7 -8 -36
-58 -65 -110 -62 -112 -139 -234 -151 -238 -5 -2 -4 -13 2 -23 23 -43 27 -125
13 -259 -7 -74 -14 -184 -15 -245 0 -60 -5 -137 -10 -170 -5 -33 -13 -122 -18
-198 -4 -76 -13 -143 -19 -149 -6 -6 -8 -16 -6 -22 7 -19 -33 -50 -67 -52 -38
-3 -53 20 -69 103 -10 48 -10 73 -1 108 11 45 9 65 -8 65 -5 0 -14 -13 -20
-28 -9 -22 -9 -51 4 -132 27 -185 18 -240 -43 -266 -103 -43 -132 8 -132 232
0 94 -4 145 -11 150 -16 10 -30 -17 -24 -46 2 -14 10 -96 16 -183 l12 -157
-23 -25 c-16 -17 -34 -25 -54 -24 -63 1 -70 9 -82 95 -39 275 -54 341 -85 359
-16 10 -23 -3 -11 -18 23 -28 40 -96 57 -229 22 -174 20 -178 -72 -178 -66 0
-67 1 -105 42 -27 30 -39 54 -44 87 -4 25 -10 55 -15 66 -14 37 -10 -33 10
-145 10 -58 17 -108 14 -112 -18 -30 -91 17 -111 73 -21 53 -54 234 -48 261 6
31 -4 37 -24 13 -15 -18 -9 -68 19 -185 36 -148 25 -220 -38 -246 -62 -27 -84
-25 -120 8 -40 37 -51 65 -51 126 0 78 -22 216 -37 232 -12 13 -15 13 -22 1
-6 -8 -5 -24 0 -38 19 -50 48 -254 39 -277 -9 -26 -36 -41 -45 -26 -4 6 -15
10 -26 10 -10 0 -18 3 -17 8 4 19 -24 63 -46 72 -19 7 -27 20 -35 60 -6 28
-11 62 -11 75 0 48 -31 170 -46 182 -9 6 -33 14 -53 18 -21 3 -57 19 -82 35
-24 17 -45 25 -47 20 -7 -20 -30 -10 -41 18 -6 15 -18 61 -26 102 -8 41 -26
129 -40 195 -28 135 -32 246 -11 343 17 79 59 132 136 172 19 10 47 30 62 44
15 14 34 26 42 26 8 0 21 6 28 13 18 17 144 62 243 86 85 21 72 28 -17 10
-123 -25 -246 -70 -330 -121 -131 -79 -176 -114 -181 -140 l-4 -23 -8 23 c-5
15 -24 31 -49 42 -90 39 -124 74 -175 183 -63 131 -242 428 -267 441 -10 6
-36 21 -56 35 -36 23 -38 26 -38 77 0 29 5 76 11 104 10 49 9 58 -44 218 -31
92 -61 190 -67 217 -22 102 -52 205 -60 205 -4 0 -10 -9 -13 -20 -7 -26 -36
-36 -160 -56 -56 -9 -120 -24 -142 -33 -88 -39 -189 -190 -214 -319 -14 -70
-17 -240 -6 -317 9 -68 32 -159 55 -222 11 -30 16 -60 12 -70 -10 -25 -103
-140 -191 -236 -87 -95 -124 -151 -147 -221 -9 -28 -34 -76 -55 -107 -52 -78
-236 -469 -411 -874 -76 -177 -112 -272 -198 -515 -38 -107 -76 -215 -85 -240
-29 -80 -64 -232 -89 -389 -14 -85 -29 -157 -33 -161 -4 -3 -27 -21 -50 -39
l-43 -33 0 -103 c0 -103 1 -105 31 -140 32 -36 32 -36 19 -93 -13 -65 -15
-153 -14 -602 0 -134 4 -207 13 -235 8 -24 17 -122 21 -245 4 -113 15 -259 23
-325 9 -67 21 -177 27 -245 6 -69 19 -192 30 -275 10 -82 28 -235 40 -340 50
-429 123 -935 175 -1200 8 -44 15 -91 15 -105 l0 -24 -17 24 c-12 17 -17 41
-15 79 2 47 0 52 -13 41 -8 -7 -15 -19 -15 -27 0 -8 -6 -13 -13 -10 -8 3 -14
-3 -14 -15 -2 -25 -44 -59 -63 -51 -8 3 -32 5 -52 4 -21 -1 -38 3 -38 8 0 15
-41 21 -47 5 -6 -17 -43 -24 -155 -28 -53 -2 -94 -9 -104 -17 -12 -10 -22 -10
-51 0 -21 8 -38 9 -42 4 -11 -17 -50 -10 -48 9 1 10 5 18 9 18 4 0 8 4 8 10 0
5 -8 9 -17 8 -29 -4 -107 14 -128 28 -11 8 -40 14 -65 14 -25 0 -51 5 -57 11
-8 8 -13 8 -17 0 -12 -19 -27 -12 -24 11 2 11 -3 23 -11 26 -10 3 -12 -1 -8
-17 6 -24 -11 -40 -23 -21 -12 20 1 50 21 50 25 0 35 25 18 43 -11 11 -18 12
-33 3 -13 -8 -20 -8 -23 0 -4 11 -8 11 -148 -6 -57 -7 -107 -7 -137 -2 -27 5
-48 6 -48 1 0 -8 -50 10 -60 21 -3 4 -14 7 -25 8 -11 1 -56 6 -100 12 -44 6
-118 12 -165 14 -47 2 -96 6 -109 11 -17 5 -21 4 -16 -5 10 -17 -27 4 -45 24
-11 14 -4 16 66 18 44 1 88 1 99 -1 104 -11 133 -10 137 7 8 31 -2 41 -36 35
-46 -7 -66 18 -31 41 29 19 25 36 -8 37 -21 0 -21 1 3 10 14 6 49 9 78 7 28
-2 52 1 52 6 0 8 41 5 123 -10 30 -5 37 -3 37 10 0 12 6 15 25 10 14 -3 25 -3
25 0 0 10 -24 50 -35 58 -16 12 -124 9 -147 -3 -15 -8 -22 -8 -28 1 -5 8 -9 4
-13 -10 -4 -15 -12 -20 -24 -18 -10 2 -17 10 -15 16 1 7 -1 12 -5 13 -5 0 -25
2 -46 4 -20 2 -37 0 -37 -5 0 -6 -13 -10 -30 -10 -20 0 -30 5 -30 15 0 8 -4
15 -10 15 -5 0 -10 -7 -10 -15 0 -8 -4 -15 -10 -15 -5 0 -10 6 -10 14 0 19
-64 30 -90 16 -15 -8 -25 -8 -34 -1 -9 7 -16 7 -24 -1 -9 -9 -13 -7 -19 8 -9
21 -54 28 -65 10 -6 -8 -8 -7 -8 2 0 8 -21 12 -69 12 -46 0 -71 4 -74 13 -4 9
-8 8 -16 -3 -7 -10 -11 -11 -11 -2 0 8 -22 12 -75 12 -41 0 -75 -3 -75 -8 0
-16 -85 -10 -110 8 -19 13 -41 18 -78 16 -29 -2 -52 1 -52 6 0 4 33 8 74 8 40
0 101 3 135 6 49 6 59 9 50 20 -17 20 -1 35 35 32 17 -1 38 2 45 6 7 5 51 8
96 7 77 -1 83 1 90 22 6 19 8 19 12 5 2 -10 14 -18 25 -18 13 0 18 5 15 14 -4
10 5 13 40 11 25 -2 48 -7 51 -11 4 -4 -3 -4 -16 -1 -12 3 -22 2 -22 -3 0 -4
11 -11 25 -14 28 -7 59 5 53 20 -2 5 52 10 121 11 87 2 127 6 133 15 6 10 8
10 8 -1 0 -9 8 -12 25 -9 14 3 28 1 31 -4 4 -5 10 -5 17 0 7 5 28 8 47 7 24
-2 42 4 58 18 12 11 22 15 22 9 0 -7 7 -12 16 -12 11 0 14 6 9 20 -6 19 -2 19
257 15 145 -2 274 -6 288 -8 14 -2 59 0 100 4 60 7 84 6 118 -7 29 -11 58 -14
90 -10 98 12 331 16 337 6 4 -6 11 -8 16 -5 5 4 9 1 9 -5 0 -6 4 -8 10 -5 12
7 14 82 3 88 -7 4 -283 14 -593 23 -36 1 -73 2 -82 3 -24 1 -23 21 0 21 10 0
23 5 30 12 9 9 15 9 24 0 7 -7 19 -12 27 -12 11 0 11 3 -3 19 -14 15 -29 18
-101 15 -46 -1 -88 -5 -93 -8 -5 -3 -32 -4 -61 -2 -31 2 -51 0 -51 -7 0 -5 -8
-3 -18 6 -21 19 -63 22 -79 6 -6 -6 -21 -8 -33 -4 -34 11 -130 11 -133 1 -2
-5 -9 -6 -16 -1 -15 9 -115 16 -216 15 -50 0 -66 2 -55 10 13 8 13 10 -2 10
-9 0 -20 -5 -23 -10 -13 -21 -125 2 -125 26 0 20 11 23 88 25 55 1 75 6 88 20
19 21 64 25 82 7 12 -12 113 -12 122 0 6 9 43 8 104 -2 32 -6 50 -5 55 2 4 7
19 8 44 3 29 -7 37 -6 37 5 0 8 -4 14 -10 14 -5 0 -10 5 -10 11 0 6 8 8 18 5
9 -2 43 -7 76 -11 46 -5 57 -4 54 6 -3 8 -15 16 -29 19 -20 5 -21 7 -6 13 19
7 23 32 7 42 -6 3 -17 -1 -26 -9 -19 -19 -34 -21 -34 -3 0 17 12 33 30 40 8 4
-10 5 -40 2 -39 -3 -48 -2 -30 4 14 5 70 9 125 9 83 0 93 -2 56 -9 -55 -11
-61 -17 -36 -35 16 -12 18 -18 7 -34 -16 -27 -9 -25 23 4 18 17 35 23 58 21
48 -4 87 -16 87 -26 0 -5 5 -9 10 -9 6 0 10 9 10 20 0 11 5 20 10 20 6 0 10 7
10 15 0 8 6 15 13 15 8 0 7 4 -3 10 -11 7 -7 10 17 10 17 0 35 -4 38 -10 3 -5
1 -10 -4 -10 -6 0 -11 -11 -11 -25 0 -26 15 -34 23 -12 4 9 8 8 16 -3 10 -13
12 -13 21 0 5 8 10 10 10 4 0 -18 47 -23 69 -8 16 12 20 11 25 -1 3 -8 14 -15
25 -15 11 0 22 -4 26 -9 9 -16 -28 -22 -65 -11 -44 13 -53 13 -45 -1 5 -7 -4
-8 -28 -4 -22 4 -37 3 -42 -5 -4 -7 -18 -9 -36 -5 -21 5 -38 1 -57 -11 -16
-10 -41 -17 -62 -15 -19 1 -46 -2 -60 -8 l-25 -10 27 0 c15 -1 39 -6 53 -13
21 -10 28 -9 35 2 6 10 12 11 22 3 7 -6 30 -8 51 -5 31 3 35 7 26 18 -14 17
-18 15 58 19 33 1 67 -2 75 -6 15 -10 11 -11 -52 -13 -72 -2 -52 -21 25 -23
72 -2 272 -11 290 -12 33 -4 145 3 145 8 0 3 -26 8 -57 9 -69 4 -75 7 -67 36
5 20 1 24 -25 29 -22 5 -31 12 -31 26 0 24 25 34 40 15 16 -18 30 -18 30 0 0
17 5 21 43 30 23 5 27 3 27 -14 0 -40 15 -18 17 25 l2 45 -357 0 c-196 0 -647
4 -1002 10 -355 5 -891 11 -1192 13 l-548 4 0 -1129 0 -1129 1277 1 c1057 1
1284 4 1317 15 22 8 44 11 49 8 22 -13 151 -16 1061 -20 780 -3 971 -1 978 9
5 7 5 29 2 48 -4 19 -6 45 -6 58 1 12 -5 25 -14 29 -11 4 -14 14 -10 34 3 16
1 31 -4 34 -13 8 -13 -56 0 -89 7 -20 6 -24 -5 -20 -10 4 -15 -6 -18 -43 -2
-26 -4 -4 -5 49 -1 56 2 99 8 103 13 8 13 55 0 55 -5 0 -10 5 -10 11 0 5 3 8
7 6 5 -3 6 19 5 48 l-4 54 49 6 c74 10 76 11 69 46 -3 18 -13 187 -21 378 -9
190 -20 382 -26 426 -5 44 -12 161 -15 260 -2 99 -6 206 -8 239 -3 36 -1 55 5
49 5 -5 12 -72 14 -149 13 -341 18 -427 25 -413 4 8 12 66 19 129 10 100 29
251 71 585 24 189 31 267 26 273 -3 3 -48 4 -100 3 l-94 -2 -6 28 c-3 15 -13
123 -21 238 -9 116 -22 269 -30 340 -8 72 -19 193 -24 270 -6 82 -18 167 -29
205 -11 36 -23 95 -26 131 -4 37 -13 90 -22 118 -14 47 -13 68 2 219 14 144
15 190 4 337 -7 94 -16 186 -21 205 -15 58 -11 67 55 137 84 90 98 120 104
218 4 74 7 83 42 125 52 64 118 178 175 303 28 62 70 135 99 170 56 70 104
144 137 208 18 34 170 279 186 298 11 14 8 -23 -13 -184 -13 -99 -23 -196 -22
-215 0 -32 1 -31 12 15 6 28 14 55 17 60 4 6 10 29 14 52 4 24 11 45 16 48 4
3 13 25 19 48 14 54 42 119 48 112 3 -3 15 16 26 43 12 27 29 56 39 66 9 10
17 25 17 34 0 9 14 44 31 77 17 33 36 70 43 83 6 12 20 25 31 28 11 4 27 13
36 21 15 12 20 9 47 -32 17 -26 33 -52 36 -58 8 -19 25 13 32 61 l6 42 74 0
c40 0 85 -5 99 -12 l26 -12 -6 -110 c-4 -61 -11 -174 -16 -251 -13 -194 -36
-566 -44 -712 -5 -88 -4 -123 4 -123 18 0 30 43 17 59 -8 11 -8 13 2 7 9 -5
12 3 12 33 0 22 7 46 15 55 8 8 15 18 15 23 0 5 9 16 20 26 20 16 21 16 29 -6
5 -12 7 -42 4 -66 -4 -34 -2 -42 8 -39 8 3 14 11 14 19 0 8 2 16 5 19 3 3 10
14 16 25 15 27 44 32 44 7 0 -33 13 -33 27 -1 13 31 14 31 33 14 12 -11 20
-13 20 -6 0 6 10 15 23 20 18 7 24 4 34 -18 l11 -26 1 33 c1 17 6 32 11 32 6
0 10 -4 10 -8 0 -4 62 -14 138 -21 150 -13 822 -71 835 -71 11 0 8 118 -3 125
-6 4 -10 -10 -10 -34 l0 -39 -77 -7 c-42 -4 -110 -4 -152 0 -42 4 -92 8 -111
8 -19 0 -41 6 -48 14 -7 7 -23 13 -35 13 -12 0 -28 4 -36 9 -11 7 -10 11 5 20
18 10 17 10 -4 11 -15 0 -26 7 -29 19 -3 11 -17 21 -31 24 -15 3 -47 10 -72
15 -92 20 -266 42 -309 40 -41 -3 -45 -6 -57 -38 -8 -23 -13 -28 -13 -15 -1
36 34 581 55 843 l6 72 73 0 c72 0 74 0 80 -28 3 -15 15 -43 26 -60 17 -29 24
-33 57 -30 33 3 40 8 65 56 l29 53 81 -5 c252 -17 312 -17 300 -5 -7 7 -13 16
-13 21 0 14 58 38 92 38 63 0 74 8 93 68 22 72 30 82 69 82 24 0 44 -13 89
-55 53 -50 56 -55 33 -55 -15 0 -33 -10 -45 -27 -18 -22 -19 -29 -8 -42 7 -9
19 -28 27 -44 15 -30 54 -45 79 -30 9 6 18 30 22 59 3 27 7 44 7 38 2 -11 60
-73 101 -109 l24 -20 -7 113 c-4 61 -4 112 0 112 4 0 34 -24 68 -54 l62 -54
22 -193 c48 -416 82 -735 82 -765 l0 -31 -52 5 -51 5 6 -48 c4 -26 7 -63 7
-81 l0 -33 58 -3 57 -3 3 -40 c2 -32 -10 -68 -66 -185 -38 -80 -81 -181 -95
-225 -76 -235 -96 -308 -111 -392 -14 -87 -88 -278 -169 -440 -35 -69 -93
-250 -122 -381 -14 -63 -32 -124 -40 -136 -8 -12 -21 -40 -29 -64 -8 -23 -33
-72 -54 -109 -21 -38 -73 -133 -114 -213 -93 -179 -156 -281 -268 -435 -49
-68 -106 -160 -130 -212 -24 -51 -47 -93 -52 -93 -4 0 -1 17 7 37 14 34 14 39
0 49 -19 14 -20 28 0 20 11 -4 15 1 15 19 0 17 -6 25 -18 25 -10 0 -23 5 -30
12 -13 13 -62 20 -62 8 0 -4 9 -10 21 -13 13 -4 18 -10 14 -17 -6 -9 -9 -9
-15 0 -5 8 -17 9 -41 2 -37 -10 -62 -6 -54 8 3 5 13 6 23 3 12 -4 14 -3 7 5
-13 14 -121 36 -141 28 -8 -3 -27 0 -42 7 -24 10 -13 13 88 17 l115 6 -162 2
c-161 2 -163 2 -167 -20 -11 -50 -36 -492 -29 -499 5 -3 31 -9 60 -11 49 -5
52 -4 64 23 25 62 140 143 239 169 77 20 80 21 80 39 0 10 6 23 13 29 9 8 11
-6 9 -66 -4 -87 24 -225 59 -295 12 -23 48 -78 80 -122 32 -44 65 -89 73 -100
16 -22 9 -26 112 52 122 93 267 157 448 198 118 27 241 16 332 -28 24 -11 45
-19 48 -16 2 2 -1 32 -6 66 -11 65 3 123 29 123 7 0 13 10 14 23 1 27 5 15 14
-38 5 -31 9 -36 16 -23 9 16 -3 403 -16 516 -4 34 0 50 21 81 l25 39 72 -22
c40 -12 105 -35 145 -51 69 -27 72 -30 72 -60 0 -29 -5 -34 -43 -49 -58 -22
-173 -20 -188 3 -11 17 -8 -117 12 -449 12 -199 15 -223 28 -201 32 50 282
312 333 347 44 31 56 35 106 37 29 1 32 4 28 23 -4 13 -1 26 6 30 6 4 8 3 4
-4 -3 -5 -1 -12 6 -14 16 -6 11 -111 -7 -154 -14 -34 -101 -147 -178 -231 -30
-32 -37 -47 -32 -64 6 -18 4 -20 -13 -15 -14 5 -26 -2 -45 -26 -14 -18 -42
-51 -61 -72 -20 -22 -36 -46 -36 -53 0 -8 -4 -11 -10 -8 -5 3 -12 -5 -16 -19
-3 -13 -12 -27 -20 -30 -8 -3 -14 -10 -14 -16 0 -6 -6 -18 -14 -25 -10 -11
-16 -11 -26 -2 -10 10 -11 -4 -6 -71 5 -66 15 -101 45 -170 22 -48 42 -98 46
-112 4 -14 18 -37 30 -51 37 -45 110 -199 141 -299 27 -89 33 -99 91 -155 34
-33 75 -86 92 -118 29 -56 30 -61 24 -152 l-6 -95 219 1 c120 0 228 4 239 8
11 5 25 4 32 -1 8 -6 32 -5 69 3 42 10 52 15 38 20 -29 11 -86 11 -79 -1 10
-16 -2 -12 -20 7 -13 12 -19 13 -25 4 -5 -10 -9 -9 -13 3 -4 9 -12 15 -19 14
-6 -2 -14 5 -16 14 -2 12 5 19 22 24 14 3 26 12 26 19 0 12 -34 29 -52 26 -8
-1 -11 26 -8 71 1 16 -3 28 -9 28 -6 0 -11 -15 -11 -33 0 -25 -9 -43 -37 -70
-41 -42 -60 -44 -204 -27 -126 16 -133 18 -119 35 7 8 8 15 3 15 -17 0 -55
261 -39 272 13 9 29 -43 51 -167 21 -125 24 -135 37 -135 6 0 8 9 5 20 -7 27
19 26 33 -1 7 -11 14 -19 16 -16 6 5 -20 140 -30 155 -3 5 -10 41 -16 78 -16
104 -28 171 -45 254 -9 41 -20 107 -25 145 -5 39 -16 113 -24 165 -7 52 -12
97 -10 99 7 8 34 -69 34 -98 0 -39 17 -84 30 -76 5 3 10 18 10 33 1 23 2 24
11 10 5 -10 9 -24 7 -30 -2 -7 7 -23 20 -36 13 -13 22 -35 23 -54 2 -50 13
-85 23 -70 4 7 3 18 -2 25 -10 12 -28 139 -23 170 1 9 -3 17 -10 17 -19 0 -5
126 16 150 11 12 15 26 10 37 -6 16 -9 15 -32 -12 l-25 -30 7 35 c9 43 14 52
26 45 5 -4 9 0 10 7 0 7 2 72 5 143 4 91 10 137 20 153 13 19 13 26 2 39 -7 9
-13 38 -13 65 0 27 -5 52 -11 56 -7 4 -11 30 -10 59 0 28 -2 49 -5 47 -10 -6
-19 23 -19 62 0 19 -6 47 -14 62 -14 26 -20 90 -32 312 -3 58 -7 114 -8 125
-2 11 -4 34 -5 50 l-2 30 -11 -25 c-6 -14 -14 -47 -18 -75 -5 -39 -8 -46 -15
-31 -5 11 -4 34 3 55 22 75 51 167 60 196 47 147 90 275 208 625 l137 405 162
240 c225 333 325 494 421 680 128 247 204 440 260 659 21 82 32 107 64 143 44
51 62 115 59 210 -1 32 3 67 8 78 6 11 14 49 18 85 9 83 16 94 69 121 61 30
69 51 64 151 -4 71 -10 95 -41 158 -23 47 -42 108 -53 165 -45 247 -86 347
-259 620 -59 94 -119 190 -134 214 -46 77 -252 373 -330 475 -42 54 -96 125
-121 158 -105 140 -250 295 -313 333 -34 21 -72 51 -85 67 -13 15 -53 49 -89
75 -63 45 -65 47 -59 82 49 292 16 562 -79 651 -24 22 -37 25 -120 28 l-94 4
-20 -41z m-2378 -2424 c36 -25 53 -60 61 -129 13 -104 -28 -130 -79 -51 -65
101 -94 165 -84 185 13 24 64 21 102 -5z m1505 -64 c2 -8 -5 -13 -17 -13 -12
0 -21 6 -21 16 0 18 31 15 38 -3z m-788 -266 c0 -5 -7 -4 -15 3 -8 7 -15 20
-15 29 1 13 3 13 15 -3 8 -11 15 -24 15 -29z m-840 3 c0 -5 -4 -10 -10 -10 -5
0 -10 5 -10 10 0 6 5 10 10 10 6 0 10 -4 10 -10z m1800 -30 c0 -5 -4 -10 -10
-10 -5 0 -10 5 -10 10 0 6 5 10 10 10 6 0 10 -4 10 -10z m-10 -34 c0 -2 -7 -9
-15 -16 -13 -11 -14 -10 -9 4 5 14 24 23 24 12z m450 -128 c0 -6 -7 -5 -15 2
-8 7 -15 17 -15 22 0 6 7 5 15 -2 8 -7 15 -17 15 -22z m24 -14 c3 -8 2 -12 -4
-9 -6 3 -10 10 -10 16 0 14 7 11 14 -7z m36 -50 c0 -8 -4 -12 -10 -9 -5 3 -10
13 -10 21 0 8 5 12 10 9 6 -3 10 -13 10 -21z m-9 -57 c-8 -8 -11 -7 -11 4 0 9
3 19 7 23 4 4 9 2 11 -4 3 -7 -1 -17 -7 -23z m88 -47 c5 -14 17 -47 26 -74 21
-58 65 -110 111 -132 43 -20 43 -36 0 -79 -41 -41 -56 -87 -56 -172 0 -34 -5
-65 -10 -68 -17 -11 -117 -170 -179 -287 -17 -32 -33 -58 -36 -58 -3 0 -5 23
-5 51 0 41 3 50 15 45 10 -3 15 1 15 12 0 14 2 14 9 3 7 -11 13 -6 26 19 14
27 15 37 5 53 -7 12 -7 17 -1 12 19 -11 24 24 7 50 -12 18 -13 30 -6 49 6 16
6 27 0 31 -5 3 -7 25 -4 49 5 31 1 55 -14 88 -25 57 -13 83 13 31 10 -21 20
-49 22 -63 2 -14 7 -56 11 -95 8 -63 10 -67 20 -45 10 24 11 24 11 3 1 -13 6
-23 12 -23 8 0 9 11 5 33 -12 56 -18 139 -11 164 9 36 29 22 29 -20 1 -56 20
-49 24 9 2 37 -1 56 -12 67 -17 17 -22 47 -7 47 5 0 12 -10 15 -22 7 -21 8
-21 20 12 12 32 13 33 24 15 12 -21 16 -10 12 30 -4 37 -40 63 -40 29 0 -8 5
-12 10 -9 6 3 10 1 10 -5 0 -6 -8 -10 -17 -8 -12 3 -17 12 -15 27 2 18 -2 21
-17 16 -24 -7 -32 15 -25 65 11 71 7 100 -19 150 -15 29 -27 57 -27 63 1 16
37 -32 49 -63z m-59 -36 c0 -27 -4 -43 -10 -39 -17 11 -11 85 7 85 2 0 3 -21
3 -46z m27 -149 c-7 -7 -16 -10 -21 -5 -12 12 2 30 19 24 11 -5 12 -9 2 -19z
m17 -66 c4 -23 2 -46 -3 -53 -5 -6 -11 -20 -13 -31 -3 -11 -5 13 -6 53 0 79
12 96 22 31z m-36 -135 c-3 -14 -5 -12 -10 9 -3 19 -2 25 4 19 6 -6 8 -18 6
-28z m-1231 -300 c-3 -3 -12 -4 -19 -1 -8 3 -5 6 6 6 11 1 17 -2 13 -5z m1471
-2875 c-3 -8 -7 -3 -11 10 -4 17 -3 21 5 13 5 -5 8 -16 6 -23z m-6025 14 c-7
-2 -21 -2 -30 0 -10 3 -4 5 12 5 17 0 24 -2 18 -5z m373 -6 c6 -6 -54 -27 -77
-27 -11 0 -19 5 -19 10 0 6 6 10 13 10 8 0 7 4 -3 11 -11 7 -2 9 33 5 27 -2
51 -6 53 -9z m2176 -155 c2 -56 1 -95 -3 -85 -3 10 -9 72 -12 138 -4 75 -3
107 2 85 5 -19 11 -81 13 -138z m1522 149 c3 -5 -5 -11 -19 -13 -24 -5 -32 2
-18 15 9 10 31 9 37 -2z m-4104 -43 l0 -43 -15 29 c-19 36 -19 56 0 56 11 0
15 -11 15 -42z m6209 22 c11 -6 14 -24 12 -66 -4 -83 -18 -88 -26 -10 -8 70
-19 87 -23 34 -2 -18 -7 -37 -13 -43 -7 -7 -9 1 -8 25 2 19 -3 46 -10 58 -12
23 -12 24 21 17 18 -4 39 -11 47 -15z m-6419 -20 c0 -5 -4 -10 -10 -10 -5 0
-10 5 -10 10 0 6 5 10 10 10 6 0 10 -4 10 -10z m140 -10 c0 -5 -4 -10 -10 -10
-5 0 -10 5 -10 10 0 6 5 10 10 10 6 0 10 -4 10 -10z m888 -18 c2 -8 -8 -12
-32 -12 -24 0 -36 5 -36 14 0 17 62 16 68 -2z m-928 -27 c0 -8 -4 -15 -10 -15
-5 0 -7 7 -4 15 4 8 8 15 10 15 2 0 4 -7 4 -15z m81 -11 c12 -14 11 -16 -5
-13 -11 2 -21 10 -24 17 -5 17 13 15 29 -4z m809 1 c-11 -13 -7 -15 29 -15 28
0 40 -4 36 -11 -4 -6 -24 -8 -49 -5 -22 3 -44 5 -48 5 -17 2 7 41 24 41 17 0
18 -3 8 -15z m5503 -78 c-9 -56 -19 -29 -14 40 3 51 5 54 12 28 5 -16 6 -47 2
-68z m-5569 67 c3 -8 2 -12 -3 -9 -5 3 -12 1 -16 -5 -8 -13 -55 -13 -55 0 0
11 34 28 56 29 7 1 15 -6 18 -15z m-1287 -50 c8 -20 -16 -36 -42 -29 -40 12
-51 13 -79 14 -48 1 -17 19 39 24 28 2 56 4 63 5 7 1 15 -5 19 -14z m-397 -14
c0 -5 -4 -10 -10 -10 -5 0 -10 5 -10 10 0 6 5 10 10 10 6 0 10 -4 10 -10z
m200 0 c0 -5 -4 -10 -10 -10 -5 0 -10 5 -10 10 0 6 5 10 10 10 6 0 10 -4 10
-10z m-430 -311 c0 -5 -4 -9 -10 -9 -5 0 -10 7 -10 16 0 8 5 12 10 9 6 -3 10
-10 10 -16z m-253 -45 c-3 -3 -12 -4 -19 -1 -8 3 -5 6 6 6 11 1 17 -2 13 -5z
m916 -181 c-7 -2 -21 -2 -30 0 -10 3 -4 5 12 5 17 0 24 -2 18 -5z m-127 -55
c-18 -10 -66 -3 -66 10 0 4 19 6 42 4 33 -4 38 -6 24 -14z m174 2 c0 -5 -12
-10 -26 -10 -14 0 -23 4 -19 10 3 6 15 10 26 10 10 0 19 -4 19 -10z m-80 -15
c0 -8 -4 -15 -10 -15 -5 0 -10 7 -10 15 0 8 5 15 10 15 6 0 10 -7 10 -15z
m-155 -64 c-3 -6 -18 -11 -33 -10 l-27 1 30 13 c32 14 41 13 30 -4z m6802 -3
c-3 -8 -6 -5 -6 6 -1 11 2 17 5 13 3 -3 4 -12 1 -19z m13 -128 c0 -21 -5 -42
-12 -46 -7 -5 -9 0 -6 14 7 25 -22 39 -48 24 -21 -12 -54 -4 -54 13 0 7 -6 16
-12 18 -7 3 7 6 32 7 25 1 54 5 65 9 29 12 35 5 35 -39z m-5955 -19 c3 -6 -3
-14 -12 -20 -16 -9 -16 -10 4 -11 12 0 24 7 26 15 4 11 4 10 3 -2 -1 -14 -13
-19 -59 -23 -31 -3 -57 -2 -57 2 0 5 8 8 18 8 15 1 14 2 -3 12 -19 12 -19 12
5 19 37 10 68 10 75 0z m1019 -95 c-6 -16 -24 -23 -24 -8 0 10 22 33 27 28 2
-2 1 -11 -3 -20z m5233 -18 c-3 -8 -6 -5 -6 6 -1 11 2 17 5 13 3 -3 4 -12 1
-19z m-100 -40 c-3 -8 -6 -5 -6 6 -1 11 2 17 5 13 3 -3 4 -12 1 -19z m-5080
-30 c-3 -7 -5 -2 -5 12 0 14 2 19 5 13 2 -7 2 -19 0 -25z m10 -150 c-2 -13 -4
-5 -4 17 -1 22 1 32 4 23 2 -10 2 -28 0 -40z m5163 48 c0 -3 -4 -8 -10 -11 -5
-3 -10 -1 -10 4 0 6 5 11 10 11 6 0 10 -2 10 -4z m-5162 -248 c-1 -62 -3 -92
-5 -65 -2 26 -7 47 -11 47 -4 0 -3 29 2 65 6 36 11 65 13 65 2 0 2 -51 1 -112z
m-796 40 c56 2 66 0 62 -12 -10 -26 7 -42 22 -21 18 24 130 34 121 11 -9 -22
4 -26 46 -16 29 6 37 5 37 -6 0 -14 15 -18 57 -15 14 2 24 -5 28 -20 9 -28 -8
-39 -65 -38 -76 2 -100 9 -100 30 0 10 -4 20 -10 20 -41 5 -78 4 -92 -3 -10
-5 -19 -4 -23 3 -4 6 -13 8 -20 5 -10 -3 -15 5 -17 27 -4 28 -5 29 -13 12 -5
-11 -13 -23 -19 -27 -14 -10 42 -57 69 -58 11 0 30 -6 43 -14 24 -13 18 -25
-18 -39 -12 -4 -11 -6 3 -6 18 -1 24 -21 6 -21 -7 0 -18 -8 -25 -17 -13 -17
-15 -17 -29 1 -8 10 -16 24 -18 30 -5 15 -37 -11 -37 -30 0 -8 -7 -14 -15 -14
-22 0 -19 5 20 46 40 41 41 44 18 44 -9 0 -24 6 -32 13 -9 8 -38 22 -65 32
l-49 18 -17 -23 c-10 -13 -22 -20 -29 -16 -7 4 -18 3 -25 -3 -9 -7 -22 -8 -37
-3 -13 5 -30 7 -37 5 -7 -3 -24 2 -38 11 -13 9 -29 14 -34 11 -4 -3 -19 -1
-32 4 -13 5 -40 13 -62 16 -29 5 -36 9 -27 18 9 9 16 9 30 0 15 -10 26 -9 48
1 36 18 103 27 103 15 0 -5 5 -9 11 -9 5 0 7 5 4 10 -8 13 8 18 62 23 24 2 46
6 49 10 4 4 23 4 43 0 20 -4 66 -6 103 -5z m5817 -31 c1 -5 -3 -5 -9 -2 -5 3
-10 16 -9 28 0 21 1 21 9 2 5 -11 9 -24 9 -28z m-5564 13 c-3 -5 -10 -10 -16
-10 -5 0 -9 5 -9 10 0 6 7 10 16 10 8 0 12 -4 9 -10z m82 -6 c-3 -3 -12 -4
-19 -1 -8 3 -5 6 6 6 11 1 17 -2 13 -5z m273 -9 c0 -8 -7 -15 -15 -15 -8 0
-15 -5 -15 -11 0 -6 -6 -9 -12 -6 -22 7 -14 31 12 38 14 4 26 7 28 8 1 1 2 -6
2 -14z m-200 1 c0 -3 -4 -8 -10 -11 -5 -3 -10 -1 -10 4 0 6 5 11 10 11 6 0 10
-2 10 -4z m120 -11 c0 -8 -6 -15 -14 -15 -8 0 -23 -3 -33 -7 -17 -6 -17 -5 1
15 22 25 46 29 46 7z m140 11 c0 -11 -19 -15 -25 -6 -3 5 1 10 9 10 9 0 16 -2
16 -4z m-1196 -22 c14 18 42 14 31 -5 -4 -5 1 -12 9 -15 22 -8 20 -24 -2 -24
-10 0 -28 -7 -40 -16 -14 -9 -30 -13 -40 -8 -16 7 -23 8 -46 12 -5 1 -3 9 4
17 7 8 9 15 5 15 -5 0 2 9 15 20 22 19 24 19 36 2 13 -16 15 -16 28 2z m-284
-28 c0 -3 -4 -8 -10 -11 -5 -3 -10 -1 -10 4 0 6 5 11 10 11 6 0 10 -2 10 -4z
m1404 -6 c14 -5 26 -17 26 -25 0 -9 -4 -14 -10 -10 -5 3 -19 0 -30 -7 -18 -11
-23 -10 -31 5 -6 9 -20 17 -31 17 -28 0 -12 17 22 23 14 2 26 5 27 6 1 0 13
-3 27 -9z m5236 -28 c0 -15 -2 -15 -10 -2 -13 20 -13 33 0 25 6 -3 10 -14 10
-23z m50 -7 c0 -14 -2 -25 -4 -25 -2 0 -6 11 -8 25 -3 14 -1 25 3 25 5 0 9
-11 9 -25z m-5670 -15 c0 -5 -2 -10 -4 -10 -3 0 -8 5 -11 10 -3 6 -1 10 4 10
6 0 11 -4 11 -10z m-315 -21 c11 -4 14 -8 8 -8 -7 -1 -13 -7 -13 -14 0 -9 -13
-12 -42 -10 -33 2 -38 1 -23 -6 17 -8 18 -10 3 -10 -10 -1 -21 -2 -25 -3 -5
-2 -8 6 -8 16 0 11 -6 21 -12 23 -8 3 -13 -4 -13 -14 0 -17 -7 -19 -61 -17
-72 3 -89 8 -89 29 0 10 10 15 30 15 20 0 30 -5 30 -15 0 -8 5 -15 10 -15 6 0
10 7 10 15 0 8 5 15 10 15 6 0 10 -8 10 -17 0 -16 1 -16 13 0 26 35 98 42 162
16z m79 -15 c3 -8 2 -12 -4 -9 -6 3 -10 10 -10 16 0 14 7 11 14 -7z m211 -4
c-3 -5 0 -10 8 -10 10 0 13 -7 10 -20 -4 -16 -14 -20 -44 -20 -22 0 -39 5 -39
10 0 6 8 10 18 10 26 0 34 11 21 27 -9 10 -7 13 10 13 12 0 19 -4 16 -10z
m638 -170 c3 -36 2 -58 -3 -50 -4 8 -10 65 -13 125 -6 112 4 67 16 -75z
m-1260 153 c-7 -2 -21 -2 -30 0 -10 3 -4 5 12 5 17 0 24 -2 18 -5z m387 -13
c0 -5 -4 -10 -10 -10 -5 0 -10 5 -10 10 0 6 5 10 10 10 6 0 10 -4 10 -10z
m5900 -16 c0 -8 -4 -14 -9 -14 -11 0 -22 26 -14 34 9 9 23 -3 23 -20z m-6200
-24 c0 -5 -2 -10 -4 -10 -3 0 -8 5 -11 10 -3 6 -1 10 4 10 6 0 11 -4 11 -10z
m137 -6 c-3 -3 -12 -4 -19 -1 -8 3 -5 6 6 6 11 1 17 -2 13 -5z m253 -30 c-12
-32 -6 -44 20 -37 11 3 32 1 48 -5 20 -7 40 -6 66 1 36 12 44 21 26 32 -5 3
-6 13 -3 22 5 13 9 8 18 -18 6 -19 22 -39 35 -46 22 -11 22 -13 6 -19 -9 -4
-43 -4 -73 -1 -32 3 -65 1 -76 -5 -14 -7 -26 -7 -41 1 -11 6 -28 10 -36 9 -36
-3 -52 2 -47 17 4 8 2 17 -3 20 -11 7 -60 -15 -60 -27 0 -9 -104 -11 -138 -2
-13 4 -21 12 -19 18 4 12 42 14 100 4 34 -6 42 -3 64 20 17 18 39 28 71 33 26
3 48 7 49 8 1 0 -2 -11 -7 -25z m350 5 c0 -5 -4 -9 -10 -9 -5 0 -10 7 -10 16
0 8 5 12 10 9 6 -3 10 -10 10 -16z m-120 1 c0 -5 7 -10 15 -10 10 0 15 -10 14
-32 0 -28 -2 -30 -9 -13 -4 12 -15 27 -24 34 -18 15 -21 31 -6 31 6 0 10 -4
10 -10z m-505 -10 c3 -5 2 -10 -4 -10 -5 0 -17 -7 -26 -16 -16 -16 -45 -13
-45 6 0 21 64 38 75 20z m85 0 c-20 -13 -40 -13 -40 0 0 6 12 10 28 10 21 0
24 -2 12 -10z m270 0 c12 -8 12 -10 -3 -16 -22 -8 -50 3 -42 16 8 12 25 13 45
0z m5799 -27 c-1 -34 -2 -35 -9 -13 -11 36 -11 50 0 50 6 0 10 -17 9 -37z
m-5429 17 c0 -5 -10 -10 -22 -10 -13 0 -33 -3 -45 -6 -17 -5 -23 -2 -23 10 0
12 10 16 45 16 25 0 45 -4 45 -10z m67 4 c-3 -3 -12 -4 -19 -1 -8 3 -5 6 6 6
11 1 17 -2 13 -5z m-100 -50 c-3 -3 -12 -4 -19 -1 -8 3 -5 6 6 6 11 1 17 -2
13 -5z m5493 -108 c0 -57 -17 -33 -25 34 -6 52 -5 54 9 30 8 -14 15 -43 16
-64z"/>
<path d="M7970 5630 c0 -5 5 -10 10 -10 6 0 10 5 10 10 0 6 -4 10 -10 10 -5 0
-10 -4 -10 -10z"/>
<path d="M8002 5572 c0 -21 4 -28 19 -29 24 -2 25 19 1 41 -18 15 -19 15 -20
-12z"/>
<path d="M8072 5515 c0 -16 2 -22 5 -12 2 9 2 23 0 30 -3 6 -5 -1 -5 -18z"/>
<path d="M8021 5394 c0 -11 3 -14 6 -6 3 7 2 16 -1 19 -3 4 -6 -2 -5 -13z"/>
<path d="M7984 5240 c0 -11 1 -20 3 -20 1 0 7 9 13 20 8 15 8 20 -3 20 -7 0
-13 -9 -13 -20z"/>
<path d="M6500 7765 c0 -17 11 -20 26 -6 5 5 20 11 34 14 16 3 10 5 -17 6 -32
1 -43 -3 -43 -14z"/>
<path d="M6800 7705 c0 -3 37 -23 82 -46 46 -22 96 -50 113 -63 49 -37 145
-88 145 -78 0 20 -78 77 -155 113 -96 45 -185 81 -185 74z"/>
<path d="M6070 7581 c8 -5 26 -12 40 -16 19 -5 22 -4 14 4 -6 7 -24 14 -40 16
-20 4 -24 2 -14 -4z"/>
<path d="M6182 7110 c2 -25 -2 -49 -9 -55 -15 -14 -98 -175 -114 -222 -20 -63
-108 -171 -161 -199 -15 -8 -47 -14 -73 -14 -42 0 -45 -2 -46 -27 -2 -46 1
-57 26 -82 l24 -25 38 30 c59 47 61 47 86 18 35 -41 55 -22 22 21 -22 30 -24
37 -13 62 7 15 27 45 45 67 17 21 48 77 68 125 20 47 50 108 67 134 44 68 65
62 100 -28 33 -85 38 -54 8 56 -11 41 -20 92 -20 114 0 30 -3 36 -10 25 -5 -8
-10 -10 -10 -4 0 5 -7 19 -15 30 -14 18 -15 16 -13 -26z"/>
<path d="M6286 6695 c5 -69 34 -206 46 -219 14 -18 8 46 -13 139 -31 131 -39
150 -33 80z"/>
<path d="M5763 6015 c0 -22 2 -30 4 -17 2 12 2 30 0 40 -3 9 -5 -1 -4 -23z"/>
<path d="M5751 5934 c0 -11 3 -14 6 -6 3 7 2 16 -1 19 -3 4 -6 -2 -5 -13z"/>
<path d="M5222 5285 c0 -16 2 -22 5 -12 2 9 2 23 0 30 -3 6 -5 -1 -5 -18z"/>
<path d="M5939 4910 c-27 -22 -13 -26 26 -8 21 9 32 8 60 -5 19 -9 35 -21 35
-27 0 -5 5 -10 10 -10 17 0 11 20 -15 45 -30 31 -83 33 -116 5z"/>
<path d="M6066 4833 c-11 -11 -6 -23 9 -23 8 0 15 4 15 9 0 13 -16 22 -24 14z"/>
<path d="M5560 4630 c0 -16 6 -20 33 -18 75 4 177 -3 177 -11 0 -5 -38 -29
-85 -52 -47 -24 -85 -47 -85 -51 0 -13 16 -9 41 10 26 20 156 92 165 92 3 0 3
-26 0 -57 -10 -95 -38 -624 -33 -629 2 -2 7 42 11 98 11 166 26 272 42 289 8
8 14 20 14 25 0 17 41 97 66 131 13 17 24 35 24 39 0 4 12 26 28 50 l27 44
124 0 c69 0 186 -5 260 -10 172 -13 778 -50 819 -50 18 0 32 4 32 9 0 4 -53
11 -117 15 -65 3 -188 11 -273 16 -179 11 -445 26 -710 40 -211 11 -479 29
-527 35 -28 4 -33 2 -33 -15z"/>
<path d="M5283 4499 c-29 -11 -30 -43 -3 -86 20 -34 37 -45 26 -18 -3 8 -1 15
4 15 6 0 10 -9 10 -20 0 -30 38 -26 52 6 10 22 9 32 -8 62 -24 40 -49 53 -81
41z m63 -63 c19 -20 18 -25 -6 -19 -11 3 -20 12 -20 19 0 18 8 18 26 0z"/>
<path d="M7410 4353 c-24 -9 -50 -35 -50 -50 0 -8 4 -12 9 -9 5 4 12 -7 16
-24 7 -33 39 -60 71 -60 22 0 44 35 44 70 0 23 -16 35 -23 18 -3 -10 -10 -8
-23 5 -17 15 -17 19 -4 27 13 9 13 11 0 20 -17 11 -18 11 -40 3z m20 -43 c0
-5 -5 -10 -11 -10 -5 0 -7 5 -4 10 3 6 8 10 11 10 2 0 4 -4 4 -10z m30 -36 c0
-17 -22 -14 -28 4 -2 7 3 12 12 12 9 0 16 -7 16 -16z"/>
<path d="M5763 3810 c0 -36 2 -50 4 -32 2 17 2 47 0 65 -2 17 -4 3 -4 -33z"/>
<path d="M5753 3650 c0 -30 2 -43 4 -27 2 15 2 39 0 55 -2 15 -4 2 -4 -28z"/>
<path d="M8420 2311 c0 -17 5 -33 10 -36 6 -4 10 8 10 29 0 20 -4 36 -10 36
-5 0 -10 -13 -10 -29z"/>
<path d="M6044 2272 c4 -7 23 -10 49 -6 48 6 441 -32 475 -46 29 -13 82 -13
82 -1 0 11 -30 16 -220 36 -216 23 -395 31 -386 17z"/>
<path d="M12000 2230 l-245 -5 235 -6 c129 -4 246 -10 260 -14 21 -5 26 -3 27
14 1 14 -4 20 -15 19 -9 -1 -127 -5 -262 -8z"/>
<path d="M11393 2223 c9 -2 25 -2 35 0 9 3 1 5 -18 5 -19 0 -27 -2 -17 -5z"/>
<path d="M11543 2223 c15 -2 37 -2 50 0 12 2 0 4 -28 4 -27 0 -38 -2 -22 -4z"/>
<path d="M5335 2208 c-2 -7 -6 -24 -9 -38 -2 -14 -7 -41 -10 -60 -7 -39 -36
-315 -36 -342 0 -10 4 -18 8 -18 18 0 291 218 335 268 23 26 37 179 18 191 -7
4 -77 9 -157 10 -111 2 -145 -1 -149 -11z"/>
<path d="M8540 2196 c0 -14 16 -163 35 -333 35 -300 42 -366 65 -583 16 -144
35 -317 70 -630 16 -146 33 -291 36 -322 5 -47 9 -58 24 -58 10 0 21 7 24 16
4 12 2 15 -9 10 -8 -3 -15 -1 -15 4 0 6 8 11 18 11 9 1 24 2 32 3 8 0 14 9 14
19 -1 10 5 17 17 17 11 0 18 -5 17 -11 -4 -16 87 -23 109 -9 17 10 17 10 -2 9
-11 -1 -31 0 -45 1 l-25 2 25 7 c14 5 72 9 129 9 136 2 263 12 276 21 5 5 45
5 88 0 43 -4 101 -4 128 0 72 12 200 2 222 -17 15 -14 17 -14 17 0 0 13 11 15
60 12 33 -2 60 -1 60 3 0 5 21 8 47 7 27 0 58 6 70 14 20 12 21 12 16 -6 -7
-28 13 -36 29 -13 12 16 26 20 76 20 48 -1 68 4 88 20 27 21 27 21 41 1 8 -11
21 -20 29 -20 8 0 14 -4 14 -10 0 -5 6 -7 14 -4 8 3 36 -2 62 -11 26 -9 59
-15 73 -13 20 2 25 -1 23 -14 -3 -16 8 -18 90 -20 99 -1 155 -1 203 2 17 1 80
0 140 -4 87 -4 720 -7 810 -3 62 2 95 -4 95 -18 0 -8 7 -15 15 -15 8 0 15 -4
15 -10 0 -6 23 -8 56 -5 l56 4 -26 -24 c-25 -23 -105 -43 -124 -31 -6 3 -12 2
-14 -3 -2 -5 -31 -6 -68 -2 -75 7 -100 4 -100 -13 0 -30 53 -49 76 -27 15 15
88 -2 92 -22 3 -14 -4 -17 -35 -17 -21 0 -43 4 -50 8 -7 4 -62 3 -123 -3 -88
-9 -115 -8 -135 2 -14 8 -25 9 -25 4 0 -6 -51 -9 -122 -9 -68 0 -130 -2 -138
-5 -38 -13 -59 -14 -64 -2 -6 16 -106 25 -123 12 -7 -5 -17 -6 -23 -2 -5 3
-10 2 -10 -4 0 -6 -6 -8 -13 -6 -7 3 -42 1 -77 -4 -42 -5 -67 -5 -71 1 -4 6
-9 6 -14 -1 -7 -13 -145 -11 -145 2 0 4 5 7 10 7 6 0 10 5 10 10 0 6 -9 10
-20 10 -11 0 -20 -4 -20 -10 0 -19 24 -60 35 -60 7 0 18 -6 24 -14 15 -18 51
-16 51 2 0 9 7 12 20 9 14 -4 20 0 20 11 0 13 2 14 9 4 4 -7 19 -15 32 -17 13
-2 48 -8 78 -14 38 -8 58 -8 67 -1 8 8 14 8 19 -1 5 -7 21 -9 46 -5 21 3 40 2
44 -4 3 -5 18 -7 33 -4 15 3 55 1 90 -4 47 -7 65 -6 73 4 6 7 16 11 22 9 12
-4 177 -16 226 -17 13 0 31 -6 38 -14 8 -8 22 -14 31 -13 14 0 13 2 -3 9 -25
11 -21 11 63 12 63 1 67 0 64 -20 -3 -21 0 -22 107 -22 94 0 111 2 111 16 0 8
-4 12 -10 9 -5 -3 -20 -1 -32 6 -22 12 -22 12 -2 19 23 9 102 6 127 -5 9 -4
33 -5 52 -3 31 4 35 1 35 -19 0 -22 3 -23 95 -23 l95 0 -2 507 -3 508 -95 7
c-52 3 -97 3 -100 -1 -8 -11 -80 -11 -80 1 0 5 -6 6 -12 2 -7 -5 -19 -9 -28
-10 -8 -2 -28 -5 -45 -8 -30 -6 -141 -15 -179 -16 -16 0 -17 -3 -8 -12 7 -7
12 -25 12 -40 0 -16 6 -28 13 -28 9 0 9 -2 -1 -8 -7 -5 -11 -19 -10 -33 2 -18
-2 -24 -17 -25 -11 -1 -26 -2 -32 -3 -25 -2 -13 -21 13 -21 14 0 35 -5 47 -12
12 -6 38 -13 57 -15 117 -10 141 -15 136 -28 -3 -8 0 -16 7 -19 7 -2 5 -5 -5
-5 -9 -1 -20 4 -23 9 -9 14 -82 12 -123 -2 -28 -10 -36 -10 -39 0 -3 6 -19 12
-36 11 -30 -1 -31 -1 -7 -9 22 -6 23 -8 8 -15 -10 -4 -16 -10 -13 -14 6 -10
108 11 117 24 4 5 8 -3 8 -20 1 -25 2 -27 11 -13 13 23 31 23 27 1 -2 -14 5
-18 36 -20 41 -1 77 -23 38 -23 -12 0 -22 5 -22 11 0 8 -4 8 -13 1 -7 -6 -30
-12 -50 -14 -20 -1 -37 -6 -37 -10 0 -9 50 -11 204 -9 103 2 206 -13 206 -30
0 -7 -37 -17 -70 -18 -75 -4 -239 -21 -253 -26 -9 -4 -24 -2 -32 5 -10 8 -32
11 -60 8 -25 -3 -45 -2 -45 2 0 4 -22 7 -50 6 -27 -1 -50 -5 -50 -9 0 -5 -5
-5 -12 -1 -14 9 -256 10 -265 1 -3 -4 3 -7 15 -7 41 0 29 -15 -14 -18 -24 -1
-44 1 -44 5 0 7 -50 9 -67 3 -5 -2 -78 -4 -163 -5 -85 -1 -198 -7 -250 -14
-52 -7 -111 -14 -132 -15 -20 -1 -43 -8 -51 -15 -10 -8 -17 -9 -22 -1 -10 16
-39 12 -99 -16 -55 -25 -58 -25 -77 -8 -18 16 -19 16 -19 -5 0 -18 -2 -20 -19
-9 -15 9 -23 9 -34 0 -8 -7 -22 -10 -31 -6 -12 5 -16 0 -16 -20 0 -24 -4 -26
-40 -26 -37 0 -39 1 -28 20 17 26 8 31 -31 20 -22 -6 -40 -6 -52 1 -15 7 -21
6 -25 -6 -3 -8 -13 -15 -21 -15 -8 0 -13 -6 -10 -13 3 -8 -5 -14 -21 -15 l-27
-2 23 15 c26 19 28 33 7 42 -9 3 -22 -2 -30 -13 -13 -18 -14 -18 -21 1 -4 11
-12 23 -16 26 -14 9 -111 -12 -131 -29 -16 -14 -20 -14 -46 1 -25 14 -30 15
-47 2 -25 -19 -44 -19 -44 0 0 19 -19 19 -26 0 -7 -18 -84 -21 -102 -3 -9 9
-12 9 -12 -1 0 -7 -5 -9 -10 -6 -6 4 -8 11 -4 16 7 12 -25 38 -48 39 -9 0 -19
6 -21 13 -3 6 -6 -3 -6 -20 -1 -34 -9 -41 -28 -22 -8 8 -17 7 -32 -3 -17 -10
-25 -10 -41 0 -37 23 -52 16 -45 -20 l6 -33 -18 28 c-14 22 -23 27 -42 22 -25
-6 -117 12 -138 28 -8 6 -18 6 -25 0 -19 -14 -77 -8 -97 9 -22 18 -77 38 -105
38 -16 -1 -13 -4 13 -16 41 -17 37 -27 -7 -18 -18 4 -32 13 -32 20 0 8 -6 14
-12 15 -7 0 -3 4 10 10 28 11 20 29 -12 29 -42 0 -86 21 -86 41 0 24 -12 24
-35 -1 -12 -13 -31 -20 -57 -20 -21 0 -38 2 -38 4 0 2 7 17 15 32 10 20 15 23
15 12 0 -26 27 -22 56 8 25 24 25 26 8 45 -14 15 -15 22 -5 32 9 9 14 9 21 -3
7 -12 10 -11 16 4 4 10 2 27 -4 37 -7 10 -12 25 -12 33 0 8 -6 16 -12 19 -7 2
-10 8 -6 12 7 7 77 27 93 25 6 0 37 -2 70 -5 33 -3 67 -2 75 1 8 3 40 7 70 9
30 3 81 10 113 18 45 10 55 15 45 25 -9 9 -7 12 13 13 13 1 29 1 36 0 6 -1 14
3 17 8 8 12 -31 26 -61 22 -11 -1 -24 3 -28 8 -7 13 2 14 70 12 28 -2 61 2 75
7 21 8 13 11 -47 17 -78 7 -93 19 -42 30 19 4 33 15 36 26 4 15 15 19 48 19
23 0 63 3 89 6 46 7 46 7 43 42 -3 26 -11 39 -27 46 -17 8 -25 7 -28 -2 -5
-17 -32 -15 -32 3 0 8 -9 15 -20 15 -11 0 -20 -4 -20 -10 0 -5 -14 -10 -31
-10 -17 0 -28 -4 -24 -10 3 -5 -1 -10 -10 -10 -10 0 -13 5 -9 12 5 8 2 9 -12
4 -46 -19 -56 -18 -81 8 l-24 27 -25 -23 c-13 -13 -24 -32 -24 -43 0 -16 -2
-17 -9 -5 -6 8 -7 18 -5 22 3 4 -2 8 -12 8 -14 0 -14 2 -3 16 10 13 10 17 -2
25 -20 13 -29 11 -29 -6 0 -8 -7 -15 -15 -15 -8 0 -15 4 -15 10 0 5 -35 8 -81
7 -44 -2 -83 1 -85 5 -10 16 -24 -3 -24 -33 0 -17 -5 -29 -13 -29 -9 0 -12 10
-9 32 4 25 2 30 -10 25 -9 -3 -28 1 -43 9 -15 8 -35 14 -44 15 -23 1 45 20 96
26 28 3 43 11 46 21 4 14 5 14 6 -2 1 -16 7 -18 42 -13 53 7 68 21 51 47 -17
27 -16 28 23 36 25 4 39 2 50 -10 18 -17 40 -22 30 -7 -10 17 15 22 133 26
130 5 189 10 275 24 32 6 71 8 85 5 16 -3 35 1 47 9 19 15 18 16 -18 22 -21 4
-52 5 -69 1 -26 -5 -29 -4 -18 9 9 11 34 15 100 15 73 0 92 -3 114 -21 14 -11
26 -29 26 -40 0 -30 28 -36 113 -26 21 2 40 0 43 -5 3 -5 12 -4 20 3 7 6 20 9
28 6 8 -3 29 -2 45 3 24 7 33 5 40 -7 5 -10 13 -13 22 -8 20 13 60 15 78 5 10
-5 24 -4 34 2 12 6 34 6 64 0 26 -6 55 -7 67 -2 12 5 15 9 8 9 -9 1 -11 8 -7
20 5 16 0 20 -27 23 -18 2 -52 0 -75 -3 -25 -3 -47 -1 -53 5 -6 6 -39 12 -73
12 -80 3 -79 3 -73 12 2 4 -28 5 -67 1 -40 -3 -103 -3 -142 0 -61 6 -67 9 -45
18 14 5 75 9 135 7 102 -2 108 -1 82 12 -17 10 -54 15 -100 14 -223 -3 -477 1
-695 11 -136 7 -274 12 -307 11 -245 -4 -235 -5 -235 29 0 16 7 19 44 19 36 0
44 3 42 18 -2 9 -13 18 -24 20 -34 5 -26 20 16 27 55 9 174 14 200 8 15 -4 22
-12 22 -28 0 -31 18 -41 34 -19 8 10 25 17 45 16 17 0 31 4 31 9 0 5 5 9 10 9
6 0 10 -7 10 -15 0 -19 16 -20 23 -2 3 8 22 14 43 15 43 2 86 32 46 32 -15 0
-22 6 -22 20 0 24 18 26 35 4 10 -15 13 -15 27 0 9 9 25 16 34 16 16 0 16 -1
-2 -15 -18 -14 -15 -15 31 -13 30 2 55 9 62 18 11 13 12 12 13 -7 0 -13 5 -23
10 -23 6 0 10 9 10 19 0 24 25 34 49 19 14 -8 25 -7 50 5 19 10 49 14 76 12
39 -3 43 -1 35 13 -5 9 -11 25 -14 35 -3 10 -10 15 -16 12 -5 -3 -10 -2 -10 3
0 22 45 20 90 -3 47 -24 48 -24 53 -4 4 16 11 18 31 13 14 -3 26 -2 26 3 0 4
21 8 48 7 41 -1 126 8 200 22 13 3 20 9 16 15 -9 16 15 29 54 29 42 0 41 -11
-6 -31 l-37 -16 29 -8 c20 -6 31 -4 34 3 2 7 8 10 13 6 5 -3 9 -1 9 5 0 5 7
17 16 26 12 12 19 13 30 4 8 -6 14 -18 14 -25 0 -8 8 -14 18 -13 10 0 12 3 5
6 -7 2 -13 13 -13 24 0 17 8 19 61 19 52 0 62 -3 66 -20 6 -24 19 -26 27 -5 6
17 62 20 85 6 9 -6 23 -4 38 6 25 17 30 38 11 49 -15 9 -378 12 -378 3 0 -4
-21 -5 -47 -3 -27 2 -158 6 -293 9 -135 4 -263 8 -285 9 -22 2 -52 4 -67 5
-16 0 -28 6 -28 12 0 20 42 49 72 49 26 0 27 2 16 21 -10 15 -20 19 -38 15
-14 -2 -32 -1 -39 3 -20 13 13 21 46 12 16 -5 38 -4 51 0 12 5 71 11 131 13
59 3 120 10 134 15 18 7 36 7 53 1 33 -13 47 -13 39 0 -4 6 10 10 35 10 26 0
39 -4 35 -11 -7 -10 31 -10 337 3 54 3 101 7 104 11 4 3 13 0 21 -8 16 -16 48
-21 39 -6 -3 5 14 12 39 15 25 4 45 9 45 11 0 1 -12 17 -27 34 -25 29 -73 45
-57 20 4 -8 0 -8 -15 0 -17 9 -22 9 -27 -2 -2 -7 -15 -13 -27 -12 -12 1 -27
-5 -34 -14 -10 -14 -14 -14 -32 6 -14 15 -17 23 -8 26 9 4 9 6 0 6 -6 1 -15
-3 -18 -9 -3 -5 -12 -10 -18 -10 -7 0 -6 4 3 11 12 9 10 10 -8 6 -13 -3 -37
-1 -55 4 -17 5 -149 9 -293 10 -253 1 -378 13 -372 34 2 6 11 10 20 9 9 0 16
4 15 10 -2 10 84 18 230 20 46 0 83 4 83 8 0 4 -310 8 -690 8 l-690 0 0 -24z
m890 -286 c0 -5 -7 -7 -15 -4 -8 4 -15 8 -15 10 0 2 7 4 15 4 8 0 15 -4 15
-10z m330 -150 c0 -5 -4 -10 -10 -10 -5 0 -10 5 -10 10 0 6 5 10 10 10 6 0 10
-4 10 -10z m-656 -161 c-3 -5 -10 -7 -15 -3 -5 3 -7 10 -3 15 3 5 10 7 15 3 5
-3 7 -10 3 -15z m-460 -75 c3 -8 2 -12 -4 -9 -6 3 -10 10 -10 16 0 14 7 11 14
-7z m814 -116 c-3 -7 -13 -15 -24 -17 -16 -3 -17 -1 -5 13 16 19 34 21 29 4z
m77 2 c17 -7 14 -9 -13 -9 -20 -1 -31 3 -27 9 7 12 13 12 40 0z m-495 -116 c0
-8 -4 -12 -10 -9 -5 3 -10 10 -10 16 0 5 5 9 10 9 6 0 10 -7 10 -16z m-360
-59 c0 -8 -4 -15 -10 -15 -5 0 -7 7 -4 15 4 8 8 15 10 15 2 0 4 -7 4 -15z
m584 -81 c20 -8 20 -20 0 -28 -9 -4 -13 -2 -8 5 4 6 0 15 -7 20 -16 10 -8 12
15 3z m294 -16 c-7 -19 -35 -21 -41 -3 -5 11 0 15 19 15 16 0 24 -5 22 -12z
m-345 -78 c-5 -17 -7 -17 -20 -5 -16 17 -9 37 11 29 8 -3 12 -14 9 -24z m52
20 c3 -5 -3 -10 -15 -10 -12 0 -18 5 -15 10 3 6 10 10 15 10 5 0 12 -4 15 -10z
m52 -25 c-7 -19 -30 -10 -33 13 -4 20 -2 21 16 10 11 -7 19 -17 17 -23z m-45
-27 c-12 -12 -35 -1 -27 12 3 5 13 6 21 3 10 -4 12 -9 6 -15z m41 -18 c3 -12
0 -20 -7 -20 -6 0 -12 9 -13 20 -1 11 2 20 6 20 5 0 11 -9 14 -20z m-453 -191
c13 -7 13 -8 0 -8 -8 0 -26 6 -40 15 l-25 15 25 -7 c14 -3 32 -10 40 -15z
m3213 14 c-7 -2 -19 -2 -25 0 -7 3 -2 5 12 5 14 0 19 -2 13 -5z m77 -13 c0 -5
-7 -10 -16 -10 -8 0 -12 5 -9 10 3 6 10 10 16 10 5 0 9 -4 9 -10z m-105 -40
c4 -6 -10 -10 -35 -10 -25 0 -39 4 -35 10 3 6 19 10 35 10 16 0 32 -4 35 -10z
m105 -10 c0 -5 -7 -10 -15 -10 -8 0 -15 5 -15 10 0 6 7 10 15 10 8 0 15 -4 15
-10z m-3342 -45 c-3 -3 -9 2 -12 12 -6 14 -5 15 5 6 7 -7 10 -15 7 -18z m-58
-25 c0 -5 -2 -10 -4 -10 -3 0 -8 5 -11 10 -3 6 -1 10 4 10 6 0 11 -4 11 -10z
m3274 -29 c4 -5 -3 -7 -14 -4 -23 6 -26 13 -6 13 8 0 17 -4 20 -9z m73 3 c-3
-3 -12 -4 -19 -1 -8 3 -5 6 6 6 11 1 17 -2 13 -5z m-3340 -56 c-3 -8 -6 -5 -6
6 -1 11 2 17 5 13 3 -3 4 -12 1 -19z m1693 -158 c0 -5 -5 -10 -11 -10 -5 0 -7
5 -4 10 3 6 8 10 11 10 2 0 4 -4 4 -10z m310 -10 c0 -11 -30 -21 -41 -14 -20
12 -9 31 16 26 14 -2 25 -8 25 -12z m1320 -180 l0 -40 -50 0 c-27 0 -50 5 -50
10 0 6 18 10 39 10 22 0 43 5 46 10 3 6 2 10 -3 10 -6 0 -8 9 -5 20 9 34 23
22 23 -20z m84 24 c20 -20 20 -28 1 -20 -9 3 -15 0 -15 -10 0 -12 7 -14 30 -9
16 3 37 2 46 -3 14 -8 10 -12 -22 -22 -28 -10 -39 -10 -42 -1 -2 6 -8 8 -14 5
-5 -3 -12 3 -15 15 -3 12 -9 21 -15 21 -5 0 -4 9 2 20 13 24 23 25 44 4z
m-274 -124 c0 -5 -2 -10 -4 -10 -3 0 -8 5 -11 10 -3 6 -1 10 4 10 6 0 11 -4
11 -10z m-50 -130 c0 -5 -7 -10 -16 -10 -8 0 -12 5 -9 10 3 6 10 10 16 10 5 0
9 -4 9 -10z"/>
<path d="M9977 2213 c18 -2 50 -2 70 0 21 2 7 4 -32 4 -38 0 -55 -2 -38 -4z"/>
<path d="M10123 2213 c9 -2 23 -2 30 0 6 3 -1 5 -18 5 -16 0 -22 -2 -12 -5z"/>
<path d="M6468 2203 c6 -2 18 -2 25 0 6 3 1 5 -13 5 -14 0 -19 -2 -12 -5z"/>
<path d="M12154 2189 c-3 -5 -2 -9 3 -10 4 0 -1 -4 -12 -9 -11 -4 -30 -6 -42
-3 -12 3 -44 -1 -71 -7 -42 -11 -53 -11 -82 4 -24 12 -36 13 -41 5 -4 -7 -41
-11 -104 -10 -54 0 -102 -2 -108 -6 -6 -4 -33 -5 -60 -4 -26 1 -54 -3 -62 -9
-8 -6 -20 -8 -27 -4 -19 12 -97 14 -103 3 -4 -5 -14 -5 -26 2 -11 6 -28 8 -37
4 -9 -3 -57 -8 -107 -10 -49 -2 -103 -7 -119 -11 -20 -5 -27 -3 -22 4 3 6 2
13 -3 16 -5 3 -11 -1 -15 -9 -3 -9 -19 -15 -40 -15 -40 0 -52 -12 -31 -30 15
-13 39 -4 30 11 -4 5 -1 9 4 9 6 0 11 -7 11 -15 0 -12 13 -15 58 -15 52 -1 55
-2 38 -15 -22 -17 -9 -20 26 -6 15 6 50 4 98 -5 118 -23 113 -25 -63 -29 -64
-2 -113 -7 -120 -14 -12 -12 0 -14 66 -11 24 1 46 -5 57 -15 13 -12 37 -17 82
-17 95 0 96 0 74 17 -19 14 -19 15 7 15 16 0 27 -5 27 -14 0 -19 63 -29 210
-31 69 -2 134 -6 144 -11 13 -5 17 -4 13 3 -5 7 0 9 13 6 19 -5 57 -52 43 -54
-5 -1 -70 -3 -145 -4 -108 -2 -138 1 -142 11 -3 8 -11 14 -17 14 -9 0 -9 -3 0
-14 9 -11 3 -15 -31 -21 -35 -6 -469 -18 -558 -16 -256 7 -280 6 -280 -11 0
-29 66 -37 250 -30 30 2 106 0 168 -4 106 -6 112 -8 97 -24 -15 -16 -14 -18
12 -23 35 -7 47 1 32 19 -9 11 -7 14 10 14 11 0 21 -6 21 -14 0 -9 8 -12 28
-8 15 3 21 7 15 9 -7 3 -13 9 -13 14 0 6 32 9 75 7 76 -2 94 -10 53 -24 -22
-7 -22 -8 7 -16 24 -6 33 -4 47 12 22 27 31 25 26 -5 -3 -14 -1 -25 3 -25 5 0
9 9 9 21 0 15 4 19 16 15 9 -3 19 -6 24 -6 4 0 11 -10 15 -22 3 -13 8 -18 11
-13 2 6 30 9 61 7 32 -1 76 -1 98 0 36 1 69 1 118 -2 9 -1 17 -7 17 -14 0 -8
7 -19 15 -26 10 -9 15 -9 15 -1 0 6 5 11 10 11 6 0 10 -7 10 -16 0 -11 5 -14
16 -10 9 3 18 6 21 6 3 0 0 7 -7 15 -16 19 -4 35 25 35 18 0 26 -7 31 -25 4
-18 13 -25 29 -25 18 0 22 -4 18 -19 -5 -20 10 -23 36 -7 8 5 16 4 21 -4 5 -9
9 -9 14 -1 4 6 16 11 27 11 11 0 28 7 37 16 15 15 14 16 -7 9 -17 -5 -22 -4
-19 6 6 18 48 24 58 10 3 -7 14 -9 23 -5 15 5 17 31 17 235 0 151 -4 229 -11
229 -6 0 -7 -4 -4 -10 4 -6 -8 -10 -29 -10 -20 0 -36 4 -36 9 0 12 -39 21 -46
10z m-809 -199 c-3 -5 -21 -10 -38 -9 -27 0 -29 2 -12 9 28 12 57 12 50 0z
m282 -6 c-3 -3 -12 -4 -19 -1 -8 3 -5 6 6 6 11 1 17 -2 13 -5z m606 -11 c-7
-2 -19 -2 -25 0 -7 3 -2 5 12 5 14 0 19 -2 13 -5z"/>
<path d="M10964 2129 c-3 -6 -20 -9 -38 -6 -17 2 -51 1 -76 -3 l-45 -7 40 -2
c35 -2 37 -3 17 -12 -16 -6 -34 -4 -58 6 -19 8 -34 10 -34 4 0 -12 -37 -12
-45 0 -6 10 -152 7 -163 -4 -12 -12 20 -22 60 -19 25 2 38 0 36 -7 -2 -6 -21
-13 -42 -15 -64 -6 -52 -12 28 -16 42 -2 76 0 76 4 0 4 10 4 23 0 12 -4 56 -5
97 -2 64 4 72 7 55 17 -19 12 -18 12 8 13 17 0 27 -5 27 -15 0 -23 31 -18 37
6 3 11 11 18 19 15 21 -8 39 21 24 39 -15 18 -36 20 -46 4z"/>
<path d="M2396 2107 c3 -10 9 -15 12 -12 3 3 0 11 -7 18 -10 9 -11 8 -5 -6z"/>
<path d="M3050 2095 c0 -8 5 -15 10 -15 6 0 10 7 10 15 0 8 -4 15 -10 15 -5 0
-10 -7 -10 -15z"/>
<path d="M8433 2093 c-7 -2 -13 -9 -13 -14 0 -6 4 -8 9 -5 5 4 12 0 14 -6 3
-7 6 -3 6 10 1 12 0 22 -1 21 -2 0 -9 -3 -15 -6z"/>
<path d="M5854 1969 c-10 -12 -59 -52 -109 -89 -49 -37 -99 -76 -110 -87 -11
-10 -32 -28 -48 -40 l-28 -21 28 -6 c16 -2 62 -8 105 -11 l76 -7 7 31 c3 16
15 41 25 54 20 25 90 172 90 188 0 15 -16 10 -36 -12z"/>
<path d="M9629 1979 c-10 -6 -4 -9 19 -9 17 0 32 2 32 4 0 9 -39 13 -51 5z"/>
<path d="M2788 1963 c-10 -2 -18 -9 -18 -14 0 -6 9 -7 20 -4 11 4 20 2 20 -4
0 -15 51 -13 73 3 9 7 17 15 17 18 0 6 -90 7 -112 1z"/>
<path d="M9720 1959 c0 -5 37 -9 83 -8 96 1 92 6 -10 12 -40 2 -73 0 -73 -4z"/>
<path d="M2630 1948 c0 -16 23 -19 37 -5 14 13 13 15 -11 14 -14 -1 -26 -5
-26 -9z"/>
<path d="M2926 1951 c-14 -5 -16 -10 -8 -15 7 -4 19 0 28 8 17 17 11 19 -20 7z"/>
<path d="M2726 1934 c-4 -10 -1 -14 6 -12 15 5 23 28 10 28 -5 0 -13 -7 -16
-16z"/>
<path d="M10560 1859 c0 -11 5 -19 11 -19 5 0 7 -4 4 -10 -3 -6 5 -10 19 -10
14 0 27 4 30 9 3 4 17 6 31 3 18 -3 25 0 25 12 0 19 -9 23 -72 29 -42 4 -48 2
-48 -14z"/>
<path d="M11010 1790 c20 -13 33 -13 25 0 -3 6 -14 10 -23 10 -15 0 -15 -2 -2
-10z"/>
<path d="M11138 1793 c6 -2 18 -2 25 0 6 3 1 5 -13 5 -14 0 -19 -2 -12 -5z"/>
<path d="M2068 1773 c7 -3 16 -2 19 1 4 3 -2 6 -13 5 -11 0 -14 -3 -6 -6z"/>
<path d="M11550 1770 c0 -5 5 -10 10 -10 6 0 10 5 10 10 0 6 -4 10 -10 10 -5
0 -10 -4 -10 -10z"/>
<path d="M11140 1760 c0 -5 5 -10 11 -10 5 0 7 5 4 10 -3 6 -8 10 -11 10 -2 0
-4 -4 -4 -10z"/>
<path d="M9680 1690 c0 -5 5 -10 11 -10 5 0 7 5 4 10 -3 6 -8 10 -11 10 -2 0
-4 -4 -4 -10z"/>
<path d="M1191 1681 c-7 -5 -9 -11 -4 -14 5 -3 15 -2 22 2 7 5 9 11 4 14 -5 3
-15 2 -22 -2z"/>
<path d="M1255 1679 c-3 -4 9 -9 26 -13 44 -9 49 -8 49 8 0 10 -11 14 -36 13
-19 -1 -37 -4 -39 -8z"/>
<path d="M8503 1645 c0 -27 2 -38 4 -22 2 15 2 37 0 50 -2 12 -4 0 -4 -28z"/>
<path d="M9305 1620 c3 -5 10 -10 16 -10 5 0 9 5 9 10 0 6 -7 10 -16 10 -8 0
-12 -4 -9 -10z"/>
<path d="M11985 1590 c3 -5 8 -10 11 -10 2 0 4 5 4 10 0 6 -5 10 -11 10 -5 0
-7 -4 -4 -10z"/>
<path d="M5223 1573 c-40 -5 -44 -30 -12 -75 20 -27 21 -39 17 -173 -2 -79 -9
-149 -14 -157 -12 -14 -27 -113 -44 -278 -6 -58 -26 -231 -45 -385 -19 -154
-40 -320 -46 -370 -6 -50 -13 -100 -16 -112 l-5 -23 1162 0 1163 0 -185 123
c-233 155 -321 237 -421 396 -80 126 -113 181 -152 253 -46 87 -148 252 -204
333 -119 171 -181 271 -212 341 -30 69 -33 72 -52 59 -15 -11 -47 -13 -136 -9
-141 6 -176 11 -194 28 -15 15 -235 37 -397 41 -52 1 -113 4 -135 7 -22 3 -55
4 -72 1z m42 -53 c3 -5 1 -10 -4 -10 -6 0 -11 5 -11 10 0 6 2 10 4 10 3 0 8
-4 11 -10z m684 -53 l104 -12 -2 -148 c-1 -82 -4 -154 -6 -160 -4 -13 -21
-267 -30 -447 -3 -63 -10 -144 -16 -180 -9 -58 -14 -69 -52 -102 -48 -42 -57
-45 -57 -20 -1 16 -2 15 -15 -2 -12 -15 -17 -17 -29 -7 -8 7 -24 10 -35 6 -20
-6 -209 11 -237 22 -18 7 -19 175 -4 433 19 309 41 490 70 572 10 29 16 57 13
62 -6 10 124 2 296 -17z m342 -204 l20 -31 -21 5 c-11 3 -23 10 -27 16 -3 6
-1 7 5 3 7 -4 12 -3 12 2 0 16 -13 22 -26 11 -9 -8 -11 -5 -7 11 7 27 19 22
44 -17z m-175 -5 c-2 -34 -13 -43 -36 -28 -13 9 -13 12 3 21 9 5 17 17 17 24
0 8 4 15 9 15 5 0 8 -14 7 -32z m-776 -17 c0 -19 35 -39 47 -27 4 3 12 1 19
-5 8 -6 20 -9 29 -6 8 4 31 0 52 -8 35 -12 36 -14 11 -14 -29 -1 -46 -17 -26
-24 7 -2 10 -7 7 -11 -10 -10 -39 5 -39 20 0 9 -11 14 -28 14 -15 0 -33 5 -40
12 -8 8 -15 8 -28 -3 -14 -11 -18 -11 -28 2 -6 9 -17 14 -23 12 -7 -3 -13 0
-13 6 0 6 5 11 10 11 6 0 10 9 10 20 0 13 7 20 20 20 13 0 20 -7 20 -19z m70
9 c0 -5 -7 -10 -15 -10 -8 0 -15 5 -15 10 0 6 7 10 15 10 8 0 15 -4 15 -10z
m-150 -56 c0 -8 -4 -12 -10 -9 -5 3 -10 10 -10 16 0 5 5 9 10 9 6 0 10 -7 10
-16z m945 -14 c-3 -5 -16 -10 -28 -10 -18 0 -19 2 -7 10 20 13 43 13 35 0z
m159 -31 c-8 -13 -54 -11 -54 2 0 6 9 8 21 4 19 -6 20 -5 8 17 -12 23 -12 23
9 4 12 -10 19 -23 16 -27z m-84 11 c10 -19 8 -20 -19 -18 -25 2 -28 5 -20 20
13 24 26 23 39 -2z m-887 -7 c-7 -2 -19 -2 -25 0 -7 3 -2 5 12 5 14 0 19 -2
13 -5z m895 -378 c-2 -1 -15 -5 -30 -9 -21 -5 -26 -3 -22 7 3 9 14 12 30 9 14
-2 24 -6 22 -7z m162 0 c3 -6 -13 -10 -37 -11 -39 -1 -51 5 -39 17 9 8 71 4
76 -6z m145 5 c3 -6 -1 -7 -9 -4 -9 3 -16 2 -16 -3 0 -5 -14 -7 -31 -5 -22 3
-27 7 -18 13 19 12 66 11 74 -1z m-252 -7 c-7 -2 -19 -2 -25 0 -7 3 -2 5 12 5
14 0 19 -2 13 -5z m243 -35 c-1 -21 -7 -24 -81 -31 -47 -4 -100 -3 -129 3 -36
8 -52 7 -63 -1 -10 -9 -17 -9 -25 -1 -18 18 -7 22 70 25 40 1 72 5 72 10 0 14
31 7 37 -8 5 -14 8 -14 24 1 15 14 22 15 31 6 17 -17 45 -15 52 3 8 22 13 18
12 -7z m34 -18 c0 -11 -4 -20 -10 -20 -5 0 -10 9 -10 20 0 11 5 20 10 20 6 0
10 -9 10 -20z m34 -35 c3 -9 0 -15 -9 -15 -9 0 -12 6 -9 15 4 8 7 15 9 15 2 0
5 -7 9 -15z m-134 -7 c26 1 31 -2 20 -10 -12 -8 -11 -8 5 -3 44 16 105 0 105
-26 0 -11 -5 -16 -13 -13 -7 2 -38 -1 -68 -9 -30 -7 -70 -13 -89 -12 -19 1
-59 2 -87 3 -38 2 -53 6 -53 16 0 15 -90 29 -100 15 -8 -10 -90 -16 -90 -5 0
5 -15 6 -33 3 -19 -3 -40 -2 -47 3 -8 5 3 10 31 15 24 4 50 12 56 17 9 7 15 5
19 -6 6 -15 7 -15 19 1 11 15 18 15 51 5 36 -10 106 -4 121 11 2 3 30 3 61 0
32 -3 73 -5 92 -5z m170 -60 c0 -4 -7 -5 -15 -2 -8 4 -15 16 -15 28 1 21 1 21
15 2 8 -11 15 -23 15 -28z"/>
<path d="M6360 630 c0 -5 5 -10 10 -10 6 0 10 5 10 10 0 6 -4 10 -10 10 -5 0
-10 -4 -10 -10z"/>
<path d="M8847 1573 c-12 -11 -8 -23 8 -23 8 0 15 7 15 15 0 16 -12 20 -23 8z"/>
<path d="M8889 1578 c-9 -30 -6 -37 12 -27 11 5 17 14 14 20 -6 8 -24 13 -26
7z"/>
<path d="M8970 1570 c0 -5 5 -10 10 -10 6 0 10 5 10 10 0 6 -4 10 -10 10 -5 0
-10 -4 -10 -10z"/>
<path d="M12193 1505 c-70 -11 -673 -28 -1005 -28 -88 0 -114 -6 -90 -21 4 -2
46 -6 92 -7 47 -1 93 -5 103 -8 16 -6 16 -8 -2 -23 -16 -14 -20 -14 -25 -2 -7
19 -36 18 -36 -1 0 -20 -29 -19 -52 2 -16 14 -20 15 -35 1 -18 -15 -95 -16
-190 -4 -24 4 -33 1 -33 -10 0 -19 -49 -18 -56 1 -8 20 -34 19 -34 -1 0 -13
-3 -14 -13 -5 -8 6 -17 8 -20 4 -9 -9 -157 -11 -157 -2 0 4 -9 5 -20 2 -14 -4
-20 0 -20 11 0 21 -9 20 -33 -1 -11 -10 -17 -12 -13 -5 9 15 4 15 -43 2 -20
-5 -53 -12 -73 -15 -24 -4 -38 -11 -38 -20 0 -8 5 -15 10 -15 6 0 9 -5 8 -12
-2 -8 32 -11 127 -9 172 3 163 3 375 -4 102 -3 192 -8 200 -11 14 -6 417 -17
565 -16 36 1 63 -4 67 -11 6 -9 8 -8 8 3 0 10 3 11 8 4 10 -15 82 -28 82 -14
0 5 9 10 20 10 11 0 20 -7 20 -15 0 -15 31 -21 43 -9 8 8 168 11 172 4 2 -3
42 -7 89 -8 l86 -2 0 125 c0 69 -1 124 -2 124 -2 -1 -40 -7 -85 -14z m-822
-77 c-13 -4 -28 -5 -34 -1 -14 9 23 22 42 15 10 -4 8 -8 -8 -14z m36 -44 c-3
-3 -12 -4 -19 -1 -8 3 -5 6 6 6 11 1 17 -2 13 -5z"/>
<path d="M1810 1475 c-8 -10 -27 -14 -53 -13 -23 2 -42 -2 -44 -8 -5 -15 22
-21 80 -16 42 4 47 7 47 28 0 27 -12 31 -30 9z"/>
<path d="M1998 1473 c-33 -8 -18 -23 22 -23 22 0 40 5 40 10 0 6 -4 10 -9 10
-5 0 -15 2 -23 4 -7 2 -21 2 -30 -1z"/>
<path d="M3180 1455 c-10 -12 -10 -15 4 -15 9 0 16 7 16 15 0 8 -2 15 -4 15
-2 0 -9 -7 -16 -15z"/>
<path d="M10080 1454 c0 -8 5 -12 10 -9 6 4 8 11 5 16 -9 14 -15 11 -15 -7z"/>
<path d="M10661 1460 c-18 -10 81 -20 99 -9 17 9 13 10 -46 14 -22 2 -46 0
-53 -5z"/>
<path d="M10125 1450 c3 -5 10 -10 16 -10 5 0 9 5 9 10 0 6 -7 10 -16 10 -8 0
-12 -4 -9 -10z"/>
<path d="M10375 1450 c3 -5 10 -10 16 -10 5 0 9 5 9 10 0 6 -7 10 -16 10 -8 0
-12 -4 -9 -10z"/>
<path d="M10548 1453 c7 -3 16 -2 19 1 4 3 -2 6 -13 5 -11 0 -14 -3 -6 -6z"/>
<path d="M3135 1400 c3 -5 10 -10 16 -10 5 0 9 5 9 10 0 6 -7 10 -16 10 -8 0
-12 -4 -9 -10z"/>
<path d="M3197 1403 c-3 -4 1 -19 9 -33 12 -22 13 -23 13 -5 1 24 -14 50 -22
38z"/>
<path d="M4890 1395 c-15 -18 -5 -66 21 -100 28 -35 76 -35 90 1 11 31 6 53
-22 88 -23 29 -69 35 -89 11z m75 -54 c3 -5 1 -12 -5 -16 -5 -3 -10 1 -10 9 0
18 6 21 15 7z"/>
<path d="M1752 1388 c-17 -17 8 -33 51 -33 44 0 51 22 10 31 -16 3 -33 7 -39
9 -6 2 -16 -1 -22 -7z"/>
<path d="M1975 1380 c3 -5 27 -10 53 -10 26 0 76 -5 112 -11 49 -8 80 -7 125
2 59 13 59 13 24 19 -65 11 -321 11 -314 0z"/>
<path d="M1905 1371 c-3 -5 -1 -12 5 -16 5 -3 10 1 10 9 0 18 -6 21 -15 7z"/>
<path d="M8532 1330 c0 -14 2 -19 5 -12 2 6 2 18 0 25 -3 6 -5 1 -5 -13z"/>
<path d="M8590 1285 c1 -26 2 -28 11 -12 8 14 8 22 0 30 -8 8 -11 3 -11 -18z"/>
<path d="M9120 1270 c0 -5 4 -10 9 -10 6 0 13 5 16 10 3 6 -1 10 -9 10 -9 0
-16 -4 -16 -10z"/>
<path d="M9740 1260 c-21 -7 -19 -8 17 -9 23 -1 45 4 48 9 7 12 -29 12 -65 0z"/>
<path d="M8592 1177 c2 -15 8 -26 13 -25 12 3 8 29 -7 43 -6 7 -8 1 -6 -18z"/>
<path d="M9600 1102 c0 -15 6 -17 35 -14 37 4 46 16 19 26 -30 12 -54 6 -54
-12z"/>
<path d="M9545 1050 c-4 -7 -3 -16 3 -22 13 -13 54 0 49 15 -5 16 -43 21 -52
7z"/>
<path d="M9615 1050 c-3 -5 1 -10 9 -10 9 0 16 5 16 10 0 6 -4 10 -9 10 -6 0
-13 -4 -16 -10z"/>
<path d="M9672 1049 c5 -15 66 -20 75 -6 2 4 -7 7 -21 7 -13 0 -32 3 -42 7
-12 4 -15 2 -12 -8z"/>
<path d="M8492 1030 c0 -14 2 -19 5 -12 2 6 2 18 0 25 -3 6 -5 1 -5 -13z"/>
<path d="M9760 1040 c0 -5 9 -10 19 -10 11 0 23 5 26 10 4 6 -5 10 -19 10 -14
0 -26 -4 -26 -10z"/>
<path d="M11337 1003 c-50 -8 -23 -28 41 -31 51 -2 62 0 62 13 0 9 -9 15 -24
15 -13 0 -30 2 -38 3 -7 2 -26 2 -41 0z"/>
<path d="M9511 991 c-19 -12 4 -24 45 -23 18 1 36 -3 39 -8 3 -6 1 -10 -5 -10
-6 0 -8 -5 -5 -11 5 -6 11 -4 19 6 14 20 96 28 133 14 20 -7 24 -6 21 7 -2 13
-21 17 -92 20 -49 2 -101 6 -115 9 -14 3 -32 1 -40 -4z"/>
<path d="M11457 993 c-17 -16 -4 -24 32 -22 22 2 46 -3 55 -10 14 -12 19 -11
36 4 19 17 21 17 39 1 18 -17 19 -16 26 3 3 11 14 22 23 24 9 3 -33 5 -94 6
-61 0 -114 -2 -117 -6z"/>
<path d="M6580 960 c6 -11 13 -20 16 -20 2 0 0 9 -6 20 -6 11 -13 20 -16 20
-2 0 0 -9 6 -20z"/>
<path d="M9528 943 c7 -3 16 -2 19 1 4 3 -2 6 -13 5 -11 0 -14 -3 -6 -6z"/>
<path d="M9830 915 c0 -8 8 -11 20 -8 11 3 20 7 20 8 0 1 -9 5 -20 8 -12 3
-20 0 -20 -8z"/>
<path d="M11609 928 c-9 -33 -7 -48 9 -49 9 -1 33 -3 52 -5 55 -5 64 2 43 31
-18 24 -53 34 -53 15 0 -5 -7 -10 -15 -10 -8 0 -15 5 -15 10 0 8 -18 15 -21 8z"/>
<path d="M9630 910 c0 -5 6 -10 14 -10 8 0 18 5 21 10 3 6 -3 10 -14 10 -12 0
-21 -4 -21 -10z"/>
<path d="M9685 910 c3 -5 13 -10 21 -10 8 0 14 5 14 10 0 6 -9 10 -21 10 -11
0 -17 -4 -14 -10z"/>
<path d="M11485 913 c16 -3 33 -9 36 -15 4 -6 13 -7 20 -3 17 11 -15 24 -56
23 l-30 -1 30 -4z"/>
<path d="M9438 903 c7 -3 16 -2 19 1 4 3 -2 6 -13 5 -11 0 -14 -3 -6 -6z"/>
<path d="M7360 870 c-13 -8 -12 -10 3 -10 9 0 17 5 17 10 0 12 -1 12 -20 0z"/>
<path d="M8641 864 c0 -11 3 -14 6 -6 3 7 2 16 -1 19 -3 4 -6 -2 -5 -13z"/>
<path d="M7322 850 c0 -14 2 -19 5 -12 2 6 2 18 0 25 -3 6 -5 1 -5 -13z"/>
<path d="M8406 831 c-4 -7 -5 -15 -2 -18 9 -9 19 4 14 18 -4 11 -6 11 -12 0z"/>
<path d="M8440 815 c0 -8 2 -15 4 -15 2 0 6 7 10 15 3 8 1 15 -4 15 -6 0 -10
-7 -10 -15z"/>
<path d="M6780 798 c0 -7 5 -20 10 -28 8 -12 10 -9 10 13 0 15 -4 27 -10 27
-5 0 -10 -6 -10 -12z"/>
<path d="M6820 725 c0 -15 18 -40 24 -34 3 3 -1 14 -9 25 -8 10 -14 15 -15 9z"/>
<path d="M8985 680 c-3 -5 1 -10 10 -10 9 0 13 5 10 10 -3 6 -8 10 -10 10 -2
0 -7 -4 -10 -10z"/>
<path d="M11493 663 c9 -2 25 -2 35 0 9 3 1 5 -18 5 -19 0 -27 -2 -17 -5z"/>
<path d="M11680 660 c0 -5 12 -10 26 -10 14 0 23 4 19 10 -3 6 -15 10 -26 10
-10 0 -19 -4 -19 -10z"/>
<path d="M6805 570 c18 -33 69 -100 72 -96 3 2 -12 26 -32 53 -41 53 -52 66
-40 43z"/>
<path d="M6950 534 c0 -24 109 -124 134 -124 3 0 6 14 6 30 0 17 -4 30 -10 30
-5 0 -7 -6 -4 -14 13 -35 -19 -21 -70 29 -31 30 -56 52 -56 49z"/>
<path d="M9450 520 c0 -5 7 -10 15 -10 8 0 15 5 15 10 0 6 -7 10 -15 10 -8 0
-15 -4 -15 -10z"/>
<path d="M7742 496 c-99 -25 -177 -73 -236 -145 -30 -36 -64 -91 -75 -121
l-22 -55 36 -32 c51 -44 170 -101 236 -111 39 -6 73 -4 115 5 32 8 86 18 119
22 78 10 116 31 192 104 59 56 65 59 88 49 14 -7 30 -12 35 -12 8 0 -11 56
-47 139 -24 54 -89 117 -146 141 -65 29 -215 37 -295 16z"/>
<path d="M9760 474 c0 -8 5 -12 10 -9 6 4 8 11 5 16 -9 14 -15 11 -15 -7z"/>
<path d="M7105 471 c-3 -5 -1 -12 5 -16 5 -3 10 1 10 9 0 18 -6 21 -15 7z"/>
<path d="M6930 405 c19 -19 36 -35 39 -35 3 0 -10 16 -29 35 -19 19 -36 35
-39 35 -3 0 10 -16 29 -35z"/>
<path d="M6981 363 c4 -12 95 -83 105 -83 12 0 -15 26 -62 60 -26 18 -45 28
-43 23z"/>
<path d="M9958 343 c7 -3 16 -2 19 1 4 3 -2 6 -13 5 -11 0 -14 -3 -6 -6z"/>
<path d="M9033 333 c9 -2 23 -2 30 0 6 3 -1 5 -18 5 -16 0 -22 -2 -12 -5z"/>
<path d="M11760 279 c0 -5 5 -7 10 -4 6 3 10 8 10 11 0 2 -4 4 -10 4 -5 0 -10
-5 -10 -11z"/>
<path d="M11824 266 c11 -9 24 -16 30 -16 12 0 7 5 -24 19 -24 11 -24 11 -6
-3z"/>
<path d="M4670 249 c0 -11 5 -17 10 -14 6 3 10 13 10 21 0 8 -4 14 -10 14 -5
0 -10 -9 -10 -21z"/>
<path d="M11905 260 c-3 -5 -1 -10 4 -10 6 0 11 5 11 10 0 6 -2 10 -4 10 -3 0
-8 -4 -11 -10z"/>
<path d="M7145 237 c51 -35 75 -49 75 -43 0 7 -76 56 -87 56 -4 0 1 -6 12 -13z"/>
<path d="M7380 211 c0 -5 5 -13 10 -16 6 -3 10 -2 10 4 0 5 -4 13 -10 16 -5 3
-10 2 -10 -4z"/>
<path d="M11590 200 c-13 -8 -12 -10 3 -10 9 0 17 5 17 10 0 12 -1 12 -20 0z"/>
<path d="M7230 185 c0 -22 320 -188 353 -183 18 3 14 6 -18 17 -22 7 -75 33
-119 57 -43 24 -81 44 -85 44 -4 0 -33 16 -65 35 -60 36 -66 39 -66 30z"/>
<path d="M10575 151 c-6 -11 9 -23 19 -14 9 9 7 23 -3 23 -6 0 -12 -4 -16 -9z"/>
<path d="M10500 135 c-7 -8 -9 -15 -4 -15 5 0 2 -4 -6 -10 -20 -12 -13 -16 40
-23 l45 -6 -23 19 c-13 11 -18 21 -12 25 13 8 3 25 -14 25 -8 0 -19 -7 -26
-15z"/>
<path d="M8860 110 c-9 -6 -10 -10 -3 -10 6 0 15 5 18 10 8 12 4 12 -15 0z"/>
<path d="M8913 113 c-20 -8 -15 -23 7 -23 11 0 20 7 20 15 0 15 -6 17 -27 8z"/>
<path d="M10160 100 c-21 -6 -22 -8 -8 -14 21 -10 52 -4 51 9 -2 13 -13 14
-43 5z"/>
<path d="M10255 90 c-3 -5 -1 -10 4 -10 6 0 11 5 11 10 0 6 -2 10 -4 10 -3 0
-8 -4 -11 -10z"/>
<path d="M10305 90 c-3 -5 -1 -10 4 -10 6 0 11 5 11 10 0 6 -2 10 -4 10 -3 0
-8 -4 -11 -10z"/>
<path d="M11941 14 c0 -11 3 -14 6 -6 3 7 2 16 -1 19 -3 4 -6 -2 -5 -13z"/>
<path d="M12071 14 c0 -11 3 -14 6 -6 3 7 2 16 -1 19 -3 4 -6 -2 -5 -13z"/>
<path d="M11198 3 c7 -3 16 -2 19 1 4 3 -2 6 -13 5 -11 0 -14 -3 -6 -6z"/>
<path d="M11648 3 c7 -3 16 -2 19 1 4 3 -2 6 -13 5 -11 0 -14 -3 -6 -6z"/>
</g>
</svg>
